<?xml version="1.0" standalone="no"?>
<!DOCTYPE svg PUBLIC "-//W3C//DTD SVG 1.1//EN" "http://www.w3.org/Graphics/SVG/1.1/DTD/svg11.dtd" >
<svg xmlns="http://www.w3.org/2000/svg" xmlns:xlink="http://www.w3.org/1999/xlink" version="1.1">
<metadata></metadata>
<defs>
<font id="chatype_boldbold" horiz-adv-x="1681" >
<font-face units-per-em="2048" ascent="1597" descent="-451" />
<missing-glyph horiz-adv-x="520" />
<glyph horiz-adv-x="0" />
<glyph horiz-adv-x="682" />
<glyph horiz-adv-x="0" />
<glyph horiz-adv-x="0" />
<glyph unicode="&#xd;" horiz-adv-x="0" />
<glyph unicode=" "  horiz-adv-x="520" />
<glyph unicode="&#x09;" horiz-adv-x="520" />
<glyph unicode="&#xa0;" horiz-adv-x="520" />
<glyph unicode="!" horiz-adv-x="593" d="M125 1325q-4 43 17 65.5t63 22.5h188q39 0 58.5 -24.5t17.5 -65.5l-41 -872q-1 -40 -33.5 -56t-95.5 -16q-66 0 -99.5 16t-33.5 56zM143 88v111q0 94 156 94t156 -94v-111q0 -59 -40 -81.5t-116 -22.5t-116 22.5t-40 81.5z" />
<glyph unicode="&#x22;" horiz-adv-x="714" d="M41 1350v73q0 42 30.5 53t104.5 11q96 0 128 -11t32 -53v-73q0 -32 -21 -107t-42 -135l-21 -59q-7 -52 -66 -52q-54 0 -61 52q-84 229 -84 301zM379 1350v73q0 42 30.5 53t104.5 11q96 0 128 -11t32 -53v-73q0 -32 -21 -107t-42 -135l-21 -59q-7 -52 -66 -52 q-54 0 -61 52q-84 229 -84 301z" />
<glyph unicode="#" horiz-adv-x="1550" d="M59 410l33 198h285l47 236h-287l33 198h287l75 428h293l-75 -428h233l78 428h293l-78 -428h233l-34 -198h-232l-47 -236h236l-35 -198h-232l-78 -410h-296l77 410h-229l-78 -410h-293l74 410h-283zM672 608h231l45 236h-231z" />
<glyph unicode="$" horiz-adv-x="1124" d="M154 209v162q0 21 15.5 31t33.5 8q6 0 118 -20.5t171 -20.5h16v217q-140 34 -197 65q-83 43 -117 117.5t-34 196.5q0 160 87 232t261 83v98q-2 19 13.5 29.5t36.5 13t56 2.5q24 0 42 -12.5t18 -32.5v-96q229 -4 297 -25q18 -5 22 -13t2 -23q-13 -202 -20 -283 q0 -15 -10.5 -25t-24.5 -10h-96q-22 0 -32.5 7t-14.5 28l-33 131q-70 14 -90 16v-286q193 -55 239 -80q117 -71 117 -244q0 -163 -92.5 -241.5t-263.5 -92.5v-108q-3 -45 -51 -45h-64q-24 0 -37.5 12.5t-13.5 32.5v104q-233 4 -322 25q-19 7 -25.5 17t-6.5 30zM410 975 q0 -31 7 -54t15.5 -35.5t25 -21t25 -10.5l25.5 -6v235q-47 -7 -72.5 -31.5t-25.5 -76.5zM674 367q49 2 71.5 20t22.5 64q0 24 -6.5 40.5t-22.5 26t-28 13.5t-37 10v-174z" />
<glyph unicode="%" horiz-adv-x="1755" d="M76 1024v168q0 233 342 233q88 0 153 -15t101 -37.5t57.5 -55.5t28 -62t6.5 -63v-168q0 -45 -12.5 -80.5t-46.5 -71t-107 -55.5t-180 -20q-84 0 -147 14t-99.5 35t-58.5 52.5t-29.5 61t-7.5 64.5zM350 1110q0 -87 14 -115t54 -28q52 0 66 26.5t14 116.5v18 q0 78 -16 103.5t-56 25.5q-42 0 -59 -25.5t-17 -103.5v-18zM442 57l596 1377q14 34 64 34h192q29 0 39.5 -18.5t-0.5 -40.5l-592 -1374q-11 -22 -28 -28.5t-49 -6.5h-189q-22 0 -32 17t-1 40zM985 227v168q0 234 342 234q88 0 153 -15t101 -38t57.5 -56t28 -62t6.5 -63v-168 q0 -45 -12.5 -80.5t-46.5 -71t-107 -55.5t-180 -20q-84 0 -147 14t-99.5 35t-58.5 52.5t-29.5 61t-7.5 64.5zM1260 313q0 -87 13.5 -115t53.5 -28q52 0 66 26.5t14 116.5v19q0 78 -16 103.5t-56 25.5q-42 0 -58.5 -25.5t-16.5 -103.5v-19z" />
<glyph unicode="&#x26;" horiz-adv-x="1656" d="M78 401q0 100 80 174l284 267l-10 14q-106 137 -106 305q0 80 26 139t68.5 94.5t106 56.5t128 28.5t146.5 7.5q219 0 373 -55q10 -5 10 -15l-15 -301q0 -18 -7.5 -25.5t-26.5 -7.5h-144q-12 0 -17.5 7t-8.5 24l-33 158q-35 11 -52 13.5t-57 2.5q-25 0 -49.5 -7t-47.5 -22 t-37.5 -45t-14.5 -71q0 -98 45 -156l266 -330l139 121q63 56 107 75t102 19h105q22 0 30.5 -10.5t8.5 -32.5l-2 -149q0 -51 -48 -51h-43q-31 0 -44 -7t-46 -36l-147 -129l133 -164q5 -6 16 -17.5t14.5 -15t12.5 -11t15 -9.5t17 -5.5t23 -4.5t29 -1h66q18 0 27 -8.5t9 -19.5 v-174q0 -11 -12 -19t-33 -8h-92h-85t-65 2.5t-53 5.5t-41 11t-36 16.5t-31 26t-34.5 35t-37.5 46.5l-82 105l-209 -182q-94 -84 -217 -84q-152 0 -278 145q-125 145 -125 274zM385 389q0 -33 29 -72q36 -45 84 -45q47 0 77 27l173 152l-144 184l-166 -146q-53 -46 -53 -100z " />
<glyph unicode="'" horiz-adv-x="376" d="M41 1350v73q0 42 30.5 53t104.5 11q96 0 128 -11t32 -53v-73q0 -32 -21 -107t-42 -135l-21 -59q-7 -52 -66 -52q-54 0 -61 52q-84 229 -84 301z" />
<glyph unicode="(" horiz-adv-x="755" d="M102 709q0 206 61 405t199 426q16 23 39 23h217q14 0 22.5 -10t4.5 -23q-58 -136 -85.5 -206.5t-63 -181.5t-50 -214t-14.5 -219q0 -201 54.5 -400.5t158.5 -417.5q9 -15 5 -25.5t-21 -10.5h-223q-27 0 -41 20q-263 415 -263 834z" />
<glyph unicode=")" horiz-adv-x="755" d="M106 -134.5q-4 10.5 5 25.5q104 220 158.5 419t54.5 399q0 94 -12.5 186.5t-27 157t-50 164.5t-54.5 147t-69 166q-4 13 4 23t22 10h217q23 0 39 -23q138 -227 199 -426t61 -405q0 -421 -262 -834q-14 -20 -41 -20h-223q-17 0 -21 10.5z" />
<glyph unicode="*" horiz-adv-x="854" d="M29.5 983q10.5 22 38.5 33l149 61l-149 58q-25 10 -36.5 32.5t1.5 49.5l43 69l-2 -2q15 35 57 35q19 0 39 -10l154 -90l-17 165q-3 29 15.5 46.5t52.5 17.5h84q33 0 51.5 -18t15.5 -46l-18 -165l154 90q20 10 38 10q42 0 60 -35l-2 2l41 -69q12 -26 3 -49t-36 -33 l-152 -60q16 -7 56.5 -21.5t65 -24t47 -26.5t24.5 -36q0 -17 -8 -33l-41 -70l2 2q-18 -35 -60 -35q-16 0 -38 11l-154 90q2 -27 9 -84t9 -82q0 -28 -18 -46t-49 -18h-84q-32 0 -50 18t-18 46l17 166l-154 -90q-22 -11 -39 -11q-42 0 -57 35l2 -2l-43 70q-14 27 -3.5 49z" />
<glyph unicode="+" horiz-adv-x="921" d="M45 610v146q0 13 8.5 21.5t22.5 8.5h280v285q0 13 9 22t22 9h154q13 0 21.5 -8.5t8.5 -22.5v-285h281q14 0 22.5 -8.5t8.5 -21.5v-146q0 -13 -8.5 -21.5t-22.5 -8.5h-281v-275q0 -14 -8.5 -22.5t-21.5 -8.5h-154q-13 0 -22 9t-9 22v275h-280q-14 0 -22.5 8.5t-8.5 21.5z " />
<glyph unicode="," horiz-adv-x="434" d="M41 -149.5q-7 12.5 6 34.5q29 45 36 82t7 105v121q0 49 35.5 73.5t116.5 24.5q80 0 113.5 -21t33.5 -65v-113q0 -74 -47.5 -137.5t-126.5 -97.5q-45 -19 -88 -19h-57q-22 0 -29 12.5z" />
<glyph unicode="-" horiz-adv-x="634" d="M45 502v155q0 25 7 32t26 7h491q19 0 26 -7t7 -30v-155q0 -25 -7 -32t-26 -7h-491q-19 0 -26 7t-7 30z" />
<glyph unicode="." horiz-adv-x="456" d="M70 88v111q0 94 155 94q156 0 156 -94v-111q0 -59 -40 -81.5t-116 -22.5t-115.5 22.5t-39.5 81.5z" />
<glyph unicode="/" horiz-adv-x="933" d="M18 57l592 1381q11 22 28.5 28.5t49.5 6.5h189q22 0 31.5 -17.5t0.5 -40.5l-592 -1380q-11 -22 -28 -28.5t-49 -6.5h-189q-22 0 -32 17t-1 40z" />
<glyph unicode="0" horiz-adv-x="1445" d="M143 379v698q0 191 144 300.5t440 109.5q292 0 434 -109.5t142 -300.5v-698q0 -189 -141.5 -294t-434.5 -105q-297 0 -440.5 105t-143.5 294zM487 401q0 -38 10.5 -68t36 -56.5t74.5 -41t119 -14.5q231 0 231 189v659q0 83 -50.5 133.5t-180.5 50.5q-240 0 -240 -184 v-668z" />
<glyph unicode="1" horiz-adv-x="899" d="M111 1262v108q0 20 7 28t25 11l432 76q22 4 35 -9.5t13 -33.5v-1178q0 -25 10 -35t43 -14l110 -10q21 -2 21 -25v-160q0 -20 -23 -20h-641q-22 0 -22 20v160q0 22 20 25l111 10q33 4 43 14t10 35v907q0 26 -9.5 37.5t-37.5 12.5l-108 4q-22 2 -30.5 9t-8.5 28z" />
<glyph unicode="2" horiz-adv-x="1339" d="M143 43v135q0 27 27 58l442 469q56 58 84 91t62 83t48.5 99t14.5 105q0 101 -49.5 135.5t-148.5 34.5q-111 0 -201 -12l-51 -184q-8 -33 -41 -33h-129q-19 0 -25 6.5t-8 26.5l-18 360q-1 22 4.5 29t25.5 10q243 31 484 31q75 0 132 -4.5t118 -16.5t103.5 -36t78 -60.5 t53.5 -93t18 -129.5q0 -147 -66 -285t-229 -307l-288 -295h577q35 0 35 -35v-190q0 -35 -35 -35h-985q-33 0 -33 43z" />
<glyph unicode="3" horiz-adv-x="1331" d="M143 63v168q0 26 14 34t42 3q190 -41 344 -41q100 0 165.5 13.5t100.5 42.5t48 65t13 90q0 33 -4.5 59t-11 46t-21.5 35.5t-28 26t-40 18t-46.5 12t-59.5 7.5t-67.5 4t-79.5 3q-57 0 -57 41v131q0 24 13 33.5t40 9.5h137q51 0 88.5 15t56.5 36t30 53t13.5 55.5t2.5 53.5 q0 104 -51 146.5t-152 42.5q-77 0 -213 -19l-39 -192q-8 -31 -39 -31h-127q-12 0 -17.5 1.5t-10 9t-5.5 22.5l-16 336q0 5 1 8.5t4.5 7t5.5 5t8.5 6t7.5 5.5q60 26 198 44t262 18q70 0 133.5 -8t130.5 -30.5t115.5 -57t79.5 -93.5t31 -135v-78q0 -239 -182 -309 q114 -27 170.5 -108t56.5 -195v-98q0 -75 -21.5 -135t-55.5 -100.5t-85.5 -71t-102 -47t-113.5 -26t-112.5 -12.5t-107.5 -3q-96 0 -193.5 10t-147.5 20l-50 10q-32 7 -44 15t-12 28z" />
<glyph unicode="4" horiz-adv-x="1243" d="M41 338v186q0 6 1.5 12t3 10t5 10t5.5 8.5t7.5 9t6.5 8.5l598 835q38 58 100 58h203q34 0 43.5 -21t-10.5 -49l-631 -848h348v252q0 26 12.5 37.5t40.5 11.5h201q33 0 42 -11t9 -38v-250h131q24 0 34.5 -6t10.5 -29v-186q0 -23 -10.5 -29t-34.5 -6h-131v-59q0 -24 9 -33 t40 -12l39 -4q12 -1 19.5 -9.5t7.5 -19.5v-148q0 -18 -23 -18h-491q-21 0 -21 18v152q0 20 19 23l45 6q32 4 40.5 12.5t8.5 32.5v59h-635q-43 0 -43 35z" />
<glyph unicode="5" horiz-adv-x="1333" d="M145 82l17 328q0 32 37 32h112q31 0 45 -32l41 -183q17 -6 88 -15t123 -9q67 0 115 5.5t79 20t49.5 30.5t27.5 46t11.5 57t2.5 72q0 55 -3 87t-14.5 67t-34 52t-62.5 28.5t-99 11.5h-397q-42 0 -67.5 25t-25.5 73l48 639q7 33 24 45.5t47 12.5h801q39 0 39 -41l-14 -379 q0 -31 -31 -31h-131q-37 0 -43 33l-45 196h-353q-20 0 -27 -6t-7 -26l-19 -299h256q144 0 237.5 -27t145.5 -87t72 -139.5t20 -199.5v-61q0 -428 -573 -428q-113 0 -228.5 11.5t-173.5 22t-71 15.5q-22 10 -19 53z" />
<glyph unicode="6" horiz-adv-x="1366" d="M143 449v348q0 348 157 519t448 171q321 0 432 -51q20 -9 20 -33l-14 -350q0 -31 -33 -31h-152q-28 0 -34 31l-31 200q-50 15 -160 15q-83 0 -146 -33.5t-98.5 -90t-53 -123t-17.5 -140.5v-19q58 58 223 58h80q52 0 96 -3t94.5 -12.5t90.5 -25.5t78 -44t63.5 -65 t41 -91.5t15.5 -121.5v-192q0 -87 -26.5 -155t-72 -111.5t-110.5 -72t-136.5 -40t-156.5 -11.5h-108q-88 0 -159 13.5t-134.5 47t-105.5 86.5t-66.5 135.5t-24.5 191.5zM461 360q0 -89 67 -127t172 -38q226 0 226 159v158q0 61 -13.5 98.5t-45.5 57t-71 26t-102 6.5 q-61 0 -99.5 -6.5t-71 -25t-47.5 -55.5t-15 -95v-158z" />
<glyph unicode="7" horiz-adv-x="1126" d="M35 1419q-2 29 5.5 42.5t31.5 13.5h1022q21 0 29.5 -12.5t-1.5 -41.5l-538 -1376q-10 -25 -23 -35t-43 -10h-219q-34 0 -44 19.5t7 62.5l494 1190l-463 -6l-31 -215q-1 -13 -10.5 -21t-20.5 -8h-139q-11 0 -17 1.5t-11.5 8t-6.5 19.5z" />
<glyph unicode="8" horiz-adv-x="1458" d="M143 410v61q0 57 13.5 106t42.5 92.5t80.5 75.5t121.5 48q-37 11 -62.5 22t-56 32.5t-49 50t-31 75t-12.5 106.5v72q0 58 18 107.5t59.5 92t103.5 72.5t155.5 47t210.5 17q279 0 408 -90t129 -246v-80q0 -75 -13 -125t-41.5 -80.5t-64 -46t-90.5 -26.5q67 -12 114 -34.5 t73 -49.5t40.5 -67.5t18.5 -76.5t4 -90v-65q0 -149 -54.5 -241t-183.5 -140.5t-344 -48.5q-165 0 -280 27t-182.5 83t-97.5 133.5t-30 186.5zM475 426q0 -139 62 -190.5t198 -51.5q140 0 194 54t54 198v49q0 109 -58 149t-184 40q-132 0 -199 -42t-67 -151v-55zM520 1042 q0 -97 46.5 -136.5t162.5 -39.5q119 0 165 40t46 136v99q0 82 -46.5 116.5t-156.5 34.5t-163.5 -35t-53.5 -118v-97z" />
<glyph unicode="9" horiz-adv-x="1339" d="M123 905v193q0 204 120 296.5t347 92.5h108q120 0 209 -25t155.5 -79.5t100 -146.5t33.5 -222v-557q0 -477 -635 -477q-100 0 -197.5 10t-144.5 20l-47 10q-22 5 -32.5 14t-10.5 29v156q0 45 47 37q172 -31 344 -31q111 0 181.5 17t109.5 55.5t53.5 90.5t14.5 134v45 q-74 -67 -222 -67h-69q-73 0 -135.5 10.5t-125 38t-106 71.5t-71 117t-27.5 168zM438 936q0 -46 3 -73t14.5 -55.5t34.5 -43t62.5 -24t98.5 -9.5q121 0 174.5 43t53.5 156v160q0 165 -230 165q-102 0 -156.5 -36.5t-54.5 -122.5v-160z" />
<glyph unicode=":" horiz-adv-x="456" d="M70 88v111q0 94 155 94q156 0 156 -94v-111q0 -59 -40 -81.5t-116 -22.5t-115.5 22.5t-39.5 81.5zM70 840v110q0 94 155 94q156 0 156 -94v-110q0 -59 -40 -82t-116 -23t-115.5 23t-39.5 82z" />
<glyph unicode=";" horiz-adv-x="548" d="M86 -149.5q7 -12.5 29 -12.5h57q43 0 88 19q79 34 126.5 97.5t47.5 137.5v113q0 44 -33.5 65t-113.5 21q-81 0 -116.5 -24.5t-35.5 -73.5v-121q0 -47 -1.5 -69.5t-11 -54t-30.5 -63.5q-13 -22 -6 -34.5zM131 819v111q0 94 156 94q155 0 155 -94v-111q0 -59 -39.5 -81.5 t-115.5 -22.5t-116 22.5t-40 81.5z" />
<glyph unicode="&#x3c;" horiz-adv-x="989" d="M94 455v170q0 14 17 24l817 400q20 11 36.5 4.5t16.5 -27.5v-172q0 -15 -16 -25l-611 -290l611 -289q16 -6 16 -25v-170q0 -21 -16.5 -28t-36.5 4l-817 399q-17 10 -17 25z" />
<glyph unicode="=" horiz-adv-x="1036" d="M100 346v146q0 13 8.5 21.5t22.5 8.5h776q14 0 22.5 -8.5t8.5 -21.5v-146q0 -14 -9 -22.5t-22 -8.5h-776q-13 0 -22 8.5t-9 22.5zM100 670v145q0 13 9 22t22 9h776q13 0 22 -9t9 -22v-145q0 -14 -9 -22.5t-22 -8.5h-776q-13 0 -22 8.5t-9 22.5z" />
<glyph unicode="&#x3e;" horiz-adv-x="989" d="M94 55v170q0 18 17 25l610 289l-610 290q-17 10 -17 25v172q0 21 16.5 27.5t36.5 -4.5l818 -400q16 -10 16 -24v-170q0 -15 -16 -25l-818 -399q-20 -11 -36.5 -4t-16.5 28z" />
<glyph unicode="?" horiz-adv-x="1107" d="M49 1417q0 15 41 23q122 22 453 22q101 0 177 -8t143 -28.5t110 -54.5t67.5 -88t24.5 -128v-14q0 -51 -1 -79t-18.5 -65t-29 -54.5t-62.5 -63t-86.5 -72.5t-132.5 -101q-52 -39 -80 -61q-22 -17 -22 -31q0 -10 31 -39l51 -47q31 -28 -4 -65l-97 -105q-30 -33 -75 -8 l-54 31q-180 105 -180 231q0 55 25 105t64.5 87t87.5 71.5t96.5 65.5t88 60.5t64.5 64.5t25 71q0 72 -57.5 97.5t-180.5 25.5q-48 0 -201 -15l-45 -196q-5 -16 -13.5 -19.5t-25.5 -3.5h-124q-13 0 -19 1t-12.5 6t-7.5 16zM362 88v111q0 94 156 94t156 -94v-111 q0 -59 -40 -81.5t-116 -22.5t-116 22.5t-40 81.5z" />
<glyph unicode="@" horiz-adv-x="1787" d="M86 410v407q0 91 29 174t93 157.5t156.5 129.5t228.5 87t300 32q181 0 323.5 -32t234.5 -85.5t151.5 -129t84.5 -157.5t25 -176v-354q0 -194 -69.5 -271t-247.5 -77q-192 0 -271.5 62t-79.5 220v256q0 109 -22 141.5t-104 32.5q-86 0 -111 -33.5t-25 -140.5v-147 q0 -57 7 -97t16 -59.5t26.5 -30t28 -11.5t30.5 -1h5q21 0 53 8q45 9 45 -36v-105q0 -19 -5.5 -26.5t-18.5 -12.5q-61 -20 -185 -20q-64 0 -109.5 8.5t-78 30t-53 50.5t-32 77t-15.5 102t-4 133v150q0 95 23.5 164.5t60.5 110t94 64.5t113.5 31.5t129.5 7.5q79 0 137.5 -8 t115 -32t91.5 -64.5t56.5 -109t21.5 -162.5v-256q0 -56 15.5 -81.5t64.5 -25.5q51 0 64.5 29.5t13.5 118.5v356q0 81 -32.5 147.5t-101 120t-187 83.5t-277.5 30q-288 0 -423.5 -101t-135.5 -274v-405q0 -54 1.5 -84t13 -85.5t33.5 -89.5t67 -77.5t109 -67.5t164 -41.5 t228 -17.5q322 0 607 90q26 8 45.5 -2t19.5 -37v-82q0 -47 -37 -63q-79 -38 -257 -69.5t-412 -31.5q-171 0 -305.5 25t-220.5 61t-147.5 97t-91.5 111t-46 127.5t-18.5 121t-2.5 115.5z" />
<glyph unicode="A" horiz-adv-x="1589" d="M20 20v160q0 22 17 25l55 6q30 3 44.5 17t31.5 57l463 1159q9 31 33 31h258q20 0 27 -8t16 -33l462 -1147q18 -44 38 -58.5t59 -19.5l30 -4q19 -3 19 -21v-164q0 -20 -19 -20h-534q-15 0 -19 5t-4 30v141q0 22 17 25l61 8q26 2 26 25q0 12 -7 28l-56 141h-555l-51 -139 q-5 -15 -5 -26q0 -29 32 -33l51 -6q16 -3 16 -25v-149q0 -14 -4.5 -19.5t-17.5 -5.5h-465q-19 0 -19 20zM557 604h401l-204 526z" />
<glyph unicode="B" horiz-adv-x="1484" d="M92 20v166q0 22 21 25l49 6q33 4 43 14t10 35v942q0 25 -10.5 35t-42.5 14l-49 7q-21 3 -21 24v166q0 7 6 14t17 7h762q117 0 194 -15.5t132.5 -55.5t80.5 -109.5t25 -176.5v-41q0 -101 -49 -177.5t-138 -108.5q118 -11 194.5 -90.5t76.5 -223.5v-49q0 -120 -34.5 -200 t-114 -131.5t-203 -74t-308.5 -22.5h-618q-11 0 -17 6.5t-6 13.5zM543 236h215q162 0 234.5 37.5t72.5 138.5v75q0 96 -75.5 136.5t-223.5 40.5h-223v-428zM543 893h268q100 0 149.5 44.5t49.5 123.5v35q0 78 -45 113.5t-150 35.5h-272v-352z" />
<glyph unicode="C" horiz-adv-x="1425" d="M133 545v401q0 286 162 413.5t481 127.5q124 0 282.5 -9t198.5 -22q21 -8 21 -29l-16 -374q0 -29 -33 -29h-156q-25 0 -31 29l-36 186q-86 12 -228 12q-67 0 -120 -17.5t-85.5 -46t-53.5 -68.5t-29.5 -81t-8.5 -88l2 -407q0 -165 85 -237.5t302 -72.5q169 0 387 37 q26 5 40 -1.5t14 -32.5v-177q0 -21 -7 -30t-32 -15q-57 -13 -185 -23.5t-264 -10.5q-172 0 -295 25.5t-199.5 70.5t-120.5 118.5t-59.5 155t-15.5 195.5z" />
<glyph unicode="D" horiz-adv-x="1640" d="M92 20v166q0 22 21 25l49 6q35 5 44 12.5t9 36.5v942q0 26 -9.5 35.5t-43.5 13.5l-49 7q-21 3 -21 24v166q0 21 23 21h696q696 0 696 -560v-346q0 -569 -696 -569h-696q-23 0 -23 20zM543 223h278q161 0 253.5 83.5t92.5 262.5v346q0 336 -346 336h-278v-1028z" />
<glyph unicode="E" horiz-adv-x="1372" d="M92 20v166q0 22 21 25l49 6q35 5 44 12.5t9 36.5v942q0 26 -9.5 35.5t-43.5 13.5l-49 7q-21 3 -21 24v166q0 21 23 21h1112q11 0 16 -5.5t5.5 -10.5t0.5 -15l-16 -391q-1 -18 -9 -23.5t-24 -5.5h-153q-14 0 -20.5 6t-10.5 23l-33 137q-5 22 -12.5 29.5t-32.5 7.5l-395 10 v-381h440q20 0 27.5 -7.5t7.5 -27.5v-168q0 -20 -8.5 -27.5t-32.5 -7.5h-434v-382l428 12q18 0 26 7t15 24l59 151q8 25 31 25h172q29 0 26 -29l-40 -395q-1 -12 -2.5 -17.5t-7.5 -9.5t-17 -4h-1118q-23 0 -23 20z" />
<glyph unicode="F" horiz-adv-x="1280" d="M92 20v160q0 22 21 25l49 6q33 4 43 14t10 35v948q0 25 -10.5 35t-42.5 14l-49 7q-21 3 -21 24v166q0 7 6 14t17 7h1077q33 0 33 -31l-17 -391q-2 -16 -8.5 -22.5t-23.5 -6.5h-166q-25 0 -31 29l-33 137q-5 22 -12.5 29t-32.5 8l-358 12v-426h391q20 0 27.5 -7.5 t7.5 -27.5v-170q0 -20 -8.5 -27.5t-32.5 -7.5h-385v-313q0 -26 10 -36t43 -13l82 -6q20 -1 26.5 -10t6.5 -33v-137q0 -25 -23 -25h-573q-11 0 -17 6.5t-6 13.5z" />
<glyph unicode="G" horiz-adv-x="1581" d="M133 514v455q0 272 165.5 395t516.5 123q409 0 561 -31q14 -3 17.5 -7.5t3.5 -16.5l-17 -379q0 -29 -37 -29h-141q-30 0 -35 29l-41 186q-259 14 -290 14q-167 0 -261 -78t-94 -202l2 -461q0 -149 79.5 -214t273.5 -65q139 0 243 17v270q0 26 -22 29l-115 8q-31 3 -31 33 v125q0 17 8 23.5t27 6.5h420q31 0 31 -30v-631q0 -23 -6.5 -30.5t-36.5 -16.5q-63 -19 -219.5 -38t-313.5 -19q-141 0 -243.5 13.5t-190.5 48.5t-141.5 95t-83 153.5t-29.5 223.5z" />
<glyph unicode="H" horiz-adv-x="1689" d="M92 20v162q0 20 19 23l51 6q33 4 43 14t10 35v954q0 26 -10 36t-43 14l-49 6q-21 3 -21 24v160q0 21 21 21h532q21 0 21 -21v-156q0 -17 -3.5 -21.5t-17.5 -6.5l-49 -6q-33 -4 -43 -14t-10 -36v-372h604v372q0 26 -10 36t-43 14l-50 6q-20 3 -20 24v160q0 21 20 21h533 q20 0 20 -21v-156q0 -17 -3.5 -22t-16.5 -6l-49 -6q-33 -4 -43 -14t-10 -36v-954q0 -26 10 -36t43 -13l49 -4q13 -1 16.5 -6.5t3.5 -18.5v-159q0 -23 -22 -23h-528q-23 0 -23 20v162q0 20 18 23l52 6q33 4 43 14t10 35v381h-604v-381q0 -26 10 -36t43 -13l49 -4 q13 -1 17 -6.5t4 -18.5v-159q0 -23 -23 -23h-528q-23 0 -23 20z" />
<glyph unicode="I" horiz-adv-x="757" d="M92 20v162q0 20 19 23l51 6q33 4 43 14t10 35v954q0 26 -10 36t-43 14l-49 6q-21 3 -21 24v160q0 21 21 21h532q21 0 21 -21v-156q0 -17 -3.5 -21.5t-17.5 -6.5l-49 -6q-33 -4 -43 -14t-10 -36v-954q0 -26 10 -36t43 -13l49 -4q13 -1 17 -6.5t4 -18.5v-159q0 -23 -23 -23 h-528q-23 0 -23 20z" />
<glyph unicode="J" horiz-adv-x="718" d="M-4 -207q-17 33 16 47q53 25 84 46.5t56 54.5t35 78.5t10 111.5v1083q0 25 -10.5 35.5t-43.5 14.5l-49 6q-20 3 -20 24v160q0 21 20 21h533q20 0 20 -21v-156q0 -17 -3.5 -22t-16.5 -6l-49 -6q-33 -4 -43.5 -14.5t-10.5 -35.5v-1073q0 -149 -53.5 -251.5t-191.5 -176.5 q-150 -80 -189 -80q-21 0 -29 19z" />
<glyph unicode="K" horiz-adv-x="1509" d="M92 20v162q0 20 19 23l51 6q33 4 43 14t10 35v954q0 26 -10 36t-43 14l-49 6q-21 3 -21 24v160q0 21 21 21h532q21 0 21 -21v-156q0 -17 -3.5 -21.5t-17.5 -6.5l-49 -6q-33 -4 -43 -14t-10 -36v-954q0 -26 10 -36t43 -13l49 -4q13 -1 17 -6.5t4 -18.5v-159q0 -23 -23 -23 h-528q-23 0 -23 20zM627 756v24q0 22 26 54l437 540q47 59 104 86t143 27q52 0 82 -6q15 -4 15 -27v-151q0 -17 -8.5 -23t-30.5 -6q-42 0 -61 -7t-34 -28l-337 -416l344 -512q44 -68 67 -85t62 -17h28q15 0 20 -4.5t5 -18.5v-151q0 -20 -23 -33q-33 -16 -133 -16 q-66 0 -105.5 5t-79 23t-70.5 51t-68 91l-357 542q-16 24 -21 34t-5 24z" />
<glyph unicode="L" horiz-adv-x="1284" d="M90 20v166q0 22 19 25l59 6q29 4 38 14t9 35v948q0 26 -10 36t-43 14l-49 6q-21 3 -21 24v160q0 21 21 21h532q21 0 21 -21v-156q0 -17 -3.5 -21.5t-17.5 -6.5l-49 -6q-33 -4 -43 -14t-10 -36v-978l379 12q18 0 26.5 6t14.5 20l59 185q9 28 31 28h184q14 0 21 -5.5 t6 -22.5l-41 -428q0 -9 -1 -14t-6 -10.5t-16 -6.5h-1089q-10 0 -15.5 6.5t-5.5 13.5z" />
<glyph unicode="M" horiz-adv-x="1933" d="M92 20v150q0 22 17 25l43 6q28 4 37.5 14.5t9.5 34.5v948q0 29 -8 46.5t-33 21.5l-45 6q-19 3 -19 24v152q0 27 25 27h377q31 0 49.5 -19t36.5 -57l399 -893l393 936q5 12 8 17t11 10.5t20 5.5h404q12 0 18 -6.5t6 -14.5v-149q0 -22 -20 -25l-52 -6q-32 -4 -42.5 -14.5 t-10.5 -34.5v-965q0 -26 10 -36t43 -13l50 -4q13 -1 16.5 -6.5t3.5 -18.5v-159q0 -23 -22 -23h-529q-22 0 -22 20v162q0 20 18 23l51 6q33 4 43.5 14t10.5 35v189h2v477l-369 -860q-15 -33 -45 -33h-78q-31 0 -45 28l-424 916l-2 -727q0 -25 9 -35t38 -14l43 -6 q19 -3 19 -25v-150q0 -7 -5.5 -13.5t-15.5 -6.5h-403q-10 0 -15.5 6.5t-5.5 13.5z" />
<glyph unicode="N" horiz-adv-x="1630" d="M92 20v158q0 22 19 25l59 6q31 3 39 11.5t8 37.5v1010l-82 8q-18 3 -18 24v154q0 7 5 14t15 7h281q94 0 126.5 -12t67.5 -62l564 -823v639q0 25 -10.5 35.5t-39.5 13.5l-49 6q-17 1 -22.5 9.5t-5.5 33.5v139q0 21 20 21h459q20 0 20 -21v-158q0 -21 -18 -24l-60 -6 q-30 -3 -37.5 -11t-7.5 -38v-1178q0 -39 -34 -39h-152q-24 0 -35.5 5t-23.5 22l-713 1028v-797q0 -26 9.5 -36t37.5 -13l49 -6q17 -1 23 -6.5t6 -16.5v-160q0 -20 -21 -20h-458q-21 0 -21 20z" />
<glyph unicode="O" d="M133 551v371q0 155 31 256t110.5 172.5t217.5 103t350 31.5q170 0 290.5 -21.5t201.5 -62.5t128 -111t66.5 -157.5t19.5 -210.5v-371q0 -123 -19.5 -211.5t-66.5 -159.5t-127.5 -113.5t-202 -64.5t-290.5 -22q-170 0 -291.5 22t-203 64.5t-128.5 113.5t-66.5 159.5 t-19.5 211.5zM481 551q0 -98 21.5 -161t70 -97t111 -47t158.5 -13q97 0 159 12.5t109.5 47t68.5 97.5t21 161v371q0 98 -21 160t-68.5 95t-109 44.5t-159.5 11.5q-77 0 -130.5 -7t-100 -26.5t-73.5 -54t-42 -90t-15 -133.5v-371z" />
<glyph unicode="P" horiz-adv-x="1392" d="M92 20v162q0 20 19 23l51 6q33 4 43 14t10 35v948q0 25 -10.5 35t-42.5 14l-49 7q-21 3 -21 24v166q0 7 6 14t17 7h612q307 0 447.5 -93t140.5 -313v-131q0 -220 -145.5 -319t-442.5 -99h-184v-260q0 -26 10 -36t43 -13l49 -4q13 -1 17 -6.5t4 -18.5v-159q0 -23 -23 -23 h-528q-23 0 -23 20zM543 745h151q157 0 221 53.5t64 168.5v65q0 114 -63.5 165.5t-221.5 51.5h-151v-504z" />
<glyph unicode="Q" d="M133 551v371q0 155 31 256t110.5 172.5t217.5 103t350 31.5q170 0 290.5 -21.5t201.5 -62.5t128 -111t66.5 -157.5t19.5 -210.5v-371q0 -132 -22.5 -224.5t-77 -164.5t-150 -113t-237.5 -57q51 -108 160 -152q34 -12 16 -47l-66 -141q-8 -19 -28 -19q-39 0 -189 80 q-183 98 -229 271q-176 9 -291.5 46t-181.5 109.5t-92.5 170t-26.5 241.5zM481 551q0 -98 21.5 -161t70 -97t111 -47t158.5 -13q97 0 159 12.5t109.5 47t68.5 97.5t21 161v371q0 98 -21 160t-68.5 95t-109 44.5t-159.5 11.5q-77 0 -130.5 -7t-100 -26.5t-73.5 -54t-42 -90 t-15 -133.5v-371z" />
<glyph unicode="R" horiz-adv-x="1521" d="M92 20v162q0 20 19 23l51 6q33 4 43 14t10 35v948q0 25 -10.5 35t-42.5 14l-49 7q-21 3 -21 24v166q0 7 6 14t17 7h684q70 0 121.5 -2.5t106.5 -9t94 -19.5t77 -33t63 -49.5t44.5 -69.5t28.5 -93.5t9 -119.5v-90q0 -317 -249 -399q45 -10 79 -44t66 -100l66 -133 q32 -69 45 -86.5t34 -17.5q15 0 39 1t29 1q19 0 24 -6t5 -23v-135q0 -39 -28.5 -47t-166.5 -8q-131 0 -185 30.5t-106 139.5l-137 289q-30 60 -63 82t-74 24h-178v-297q0 -26 10 -36t43 -13l49 -4q13 -1 17 -6.5t4 -18.5v-159q0 -23 -23 -23h-528q-23 0 -23 20zM543 786h223 q146 0 203 47.5t57 155.5v90q0 94 -58 140.5t-202 46.5h-223v-480z" />
<glyph unicode="S" horiz-adv-x="1306" d="M82 51v180q0 35 39 31q18 -2 111.5 -14t173.5 -19.5t145 -7.5q55 0 86 0.5t74 4t66.5 9.5t50.5 17.5t41 28.5t23 42t9 58q0 77 -30.5 105.5t-114.5 52.5l-434 123q-66 19 -111 58t-68.5 97t-33 122t-9.5 148q0 74 12.5 131.5t34.5 100t59 72t79.5 48.5t103 29.5 t122.5 14.5t144 4q130 0 284.5 -10t209.5 -23q35 -8 31 -45l-21 -344q-3 -41 -37 -41h-118q-25 0 -36.5 8.5t-15.5 32.5l-43 186q-111 15 -223 15q-156 0 -217 -31t-61 -131q0 -85 30 -131t101 -66l444 -121q124 -34 177.5 -128.5t53.5 -254.5q0 -99 -29 -174t-79.5 -123 t-127 -77.5t-163.5 -41.5t-197 -12q-344 0 -512 43q-24 6 -24 33z" />
<glyph unicode="T" horiz-adv-x="1400" d="M51 1444q0 10 0.5 15t6 10.5t16.5 5.5h1255q11 0 16.5 -5.5t6 -10.5t0.5 -15l-17 -391q-1 -14 -6 -20.5t-10.5 -7.5t-15.5 -1h-152q-11 0 -19.5 8t-11.5 21l-35 178q-3 24 -26 24l-195 7v-996q0 -26 10.5 -36t43.5 -13l110 -12q21 -3 21 -23v-162q0 -20 -23 -20h-651 q-23 0 -23 20v160q0 22 21 25l110 12q32 3 43 14t11 35v996l-195 -7q-24 0 -27 -24l-34 -178q-3 -13 -11.5 -21t-19.5 -8h-150q-10 0 -15.5 1t-10.5 7.5t-6 20.5z" />
<glyph unicode="U" horiz-adv-x="1568" d="M51 1294v160q0 7 5.5 14t15.5 7h411q10 0 15.5 -7t5.5 -14v-975q0 -146 68.5 -212t199.5 -66q130 0 252 45v968q0 26 -10 36t-43 14l-49 6q-21 3 -21 24v160q0 21 21 21h532q21 0 21 -21v-156q0 -17 -3.5 -21.5t-17.5 -6.5l-49 -6q-33 -4 -43 -14t-10 -36v-954 q0 -25 9 -35t38 -14l59 -6q19 -3 19 -25v-160q0 -7 -5.5 -13.5t-15.5 -6.5h-412q-10 0 -15 6.5t-5 13.5v17q-110 -55 -322 -55q-270 0 -398 113t-128 382v737q0 25 -9 35.5t-38 14.5l-59 6q-19 3 -19 24z" />
<glyph unicode="V" horiz-adv-x="1472" d="M0 1296v158q0 21 16 21h527q24 0 24 -29v-143q0 -22 -14 -25l-66 -8q-24 -2 -24 -25q0 -11 6 -28l309 -838l285 825q11 23 6.5 38.5t-37.5 19.5l-61 8q-17 3 -17 24v156q0 25 21 25h481q17 0 17 -21v-160q0 -21 -15 -24l-49 -6q-51 -12 -76 -80l-426 -1153 q-12 -31 -33 -31h-256q-23 0 -33 10.5t-20 38.5l-436 1141q-18 49 -26 59.5t-33 14.5l-56 8q-14 3 -14 24z" />
<glyph unicode="W" horiz-adv-x="2166" d="M0 1292v162q0 21 16 21h525q13 0 17.5 -6t4.5 -25v-141q0 -21 -14 -25l-80 -8q-20 -2 -20 -26q0 -11 4 -27l247 -816l256 967q4 17 12 21t23 4h285q18 0 23.5 -3t9.5 -20l276 -979l227 836q6 23 -0.5 31t-27.5 10l-51 6q-17 4 -17 24v152q0 25 21 25h407q10 0 16.5 -7 t6.5 -18v-150q0 -21 -17 -24l-53 -10q-36 -7 -49 -49l-358 -1184l-4 2l2 -2q-7 -19 -14 -26t-23 -7h-240q-21 0 -30 6.5t-13 24.5l-283 962l-272 -962q-9 -31 -31 -31h-243q-22 0 -31 6.5t-16 30.5l-365 1151q-13 43 -24.5 57.5t-43.5 18.5l-45 6q-14 3 -14 22z" />
<glyph unicode="X" horiz-adv-x="1521" d="M51 25v157q0 22 21 25l47 4q36 3 54 16.5t48 57.5l350 463l-331 442q-34 45 -51.5 55.5t-67.5 18.5l-27 4q-16 3 -16 22v162q0 23 22 23h539q29 0 29 -31v-135q0 -16 -7.5 -21.5t-23.5 -7.5l-25 -4q-27 -4 -29 -17.5t19 -41.5l193 -254l200 254q21 31 17 42.5t-35 16.5 l-27 4q-26 3 -26 27v141q0 27 26 27h467q27 0 27 -31v-150q0 -11 -5.5 -16t-17.5 -8l-55 -10q-48 -10 -90 -70l-334 -424l363 -477q28 -38 50.5 -56t51.5 -22l33 -4q20 -3 25 -9t5 -22v-147q0 -29 -28 -29h-576q-24 0 -24 25v143q0 27 20 29l62 6q23 2 28.5 17t-10.5 38 l-217 287l-221 -287q-12 -20 -12 -33q0 -20 30 -22l49 -4q10 -1 14.5 -3t8.5 -9t4 -21v-141q0 -25 -25 -25h-501q-21 0 -21 25z" />
<glyph unicode="Y" horiz-adv-x="1488" d="M41 1298v148q0 29 29 29h563q24 0 24 -25v-143q0 -27 -20 -29l-62 -6q-29 -3 -33 -13.5t15 -41.5l225 -396l246 396q18 31 14 42t-32 13l-49 4q-10 1 -14.5 3t-8.5 9t-4 21v141q0 25 24 25h490q20 0 20 -25v-156q0 -21 -20 -24l-47 -8q-36 -4 -48 -14.5t-42 -57.5 l-391 -606v-320q0 -25 10.5 -35t46.5 -14l82 -10q22 -3 28.5 -8.5t6.5 -26.5v-150q0 -20 -25 -20h-641q-20 0 -20 20v160q0 22 20 25l109 10q35 3 46 13t11 36v279l-387 643q-27 46 -47.5 59.5t-55.5 18.5l-45 6q-11 2 -14.5 7.5t-3.5 20.5z" />
<glyph unicode="Z" horiz-adv-x="1402" d="M92 37q0 169 19 199l745 1013l-414 -8q-19 0 -22 -12l-33 -162q-5 -23 -15 -33t-32 -10h-152q-38 0 -38 37l-5 362q0 52 58 52h1022q43 0 43 -37q0 -159 -19 -189l-745 -1013l465 10q20 0 27 5.5t16 27.5l59 149q10 25 19 34t28 9h158q39 0 35 -37l-37 -399 q-2 -21 -10 -28t-31 -7h-1098q-43 0 -43 37z" />
<glyph unicode="[" horiz-adv-x="636" d="M51 -174v1663q0 28 16.5 43.5t43.5 15.5h454q10 0 15.5 -6.5t5.5 -13.5v-170q0 -22 -19 -25l-137 -6q-29 -4 -38 -14t-9 -35v-1255q0 -25 9 -35.5t38 -14.5l137 -6q19 -3 19 -24v-170q0 -7 -5.5 -14t-15.5 -7h-446q-44 0 -56 12.5t-12 61.5z" />
<glyph unicode="\" horiz-adv-x="729" d="M16 1319q-6 17 4 33.5t31 25.5l35 15q20 9 40 4.5t26 -19.5l557 -1306q7 -15 -3 -32.5t-30 -25.5l-37 -14q-20 -9 -39.5 -5t-26.5 19z" />
<glyph unicode="]" horiz-adv-x="636" d="M51 -57q0 21 19 24l137 6q29 4 38 14.5t9 35.5v1255q0 25 -9 35t-38 14l-137 6q-19 3 -19 25v170q0 7 5.5 13.5t15.5 6.5h454q27 0 43.5 -15.5t16.5 -43.5v-1663q0 -49 -12 -61.5t-56 -12.5h-446q-10 0 -15.5 7t-5.5 14v170z" />
<glyph unicode="^" horiz-adv-x="1163" d="M125 907l301 563h311l301 -563h-270l-186 398l-185 -398h-272z" />
<glyph unicode="_" horiz-adv-x="944" d="M25 -76q0 14 8.5 22.5t21.5 8.5h828q13 0 21.5 -8.5t8.5 -22.5v-145q0 -14 -8.5 -22.5t-21.5 -8.5h-828q-13 0 -21.5 8.5t-8.5 22.5v145z" />
<glyph unicode="`" horiz-adv-x="628" d="M55 1778q3 21 21 51q16 27 63 10q174 -64 396 -72q57 -3 57 -59q0 -35 -14 -76q-24 -68 -49 -88.5t-62 -5.5q-211 64 -387 188q-25 25 -25 52z" />
<glyph unicode="a" horiz-adv-x="1239" d="M92 289v30q0 59 7.5 100t32.5 83.5t70 68t123 42t187 16.5q137 0 233 -15v93q0 75 -33 104t-134 29q-115 0 -170 -9l-39 -143q-5 -17 -10 -23t-17 -6h-147q-14 0 -20 6t-7 23l-14 277q-2 31 1.5 41t18.5 14q32 9 159 16.5t245 7.5q100 0 167.5 -6.5t132.5 -27 t102.5 -57.5t60 -99.5t22.5 -151.5v-432q0 -41 11.5 -57t35.5 -16q26 0 51 4q10 0 14.5 -1t8.5 -7.5t4 -20.5v-143q0 -22 -23 -31q-56 -18 -188 -18q-133 0 -186 69q-142 -69 -345 -69q-76 0 -134.5 11t-96.5 33.5t-63 49t-38 64t-17.5 72t-4.5 79.5zM412 287 q0 -56 31.5 -76.5t95.5 -20.5q84 0 206 46v178q-148 4 -188 4q-78 0 -111.5 -22t-33.5 -74v-35z" />
<glyph unicode="b" horiz-adv-x="1271" d="M41 1370v115q0 17 6 23.5t25 9.5l204 34q120 19 152 19q51 0 51 -49v-527q129 49 283 49q120 0 199 -23.5t125 -76.5t64.5 -126.5t18.5 -184.5v-242q0 -111 -18.5 -184.5t-64.5 -126.5t-125 -76.5t-199 -23.5q-149 0 -283 59q-1 -23 -11 -31t-34 -8h-225q-28 0 -37.5 10 t-9.5 39v1198q0 52 -9.5 64t-52.5 18l-28 4q-20 3 -25.5 9.5t-5.5 27.5zM479 246q77 -41 183 -41q55 0 87 6t56 26t33.5 56t9.5 96v246q0 104 -37 144t-129 40q-98 0 -203 -43v-530z" />
<glyph unicode="c" horiz-adv-x="1142" d="M102 412v229q0 83 13 142.5t47 111t92.5 83t150.5 49t220 17.5q264 0 366 -24q11 -3 16 -8t6 -9.5t1 -13.5l-17 -323q0 -14 -8 -21.5t-20 -7.5h-135q-21 0 -27 29l-39 149q-52 8 -158 8q-101 0 -147.5 -50.5t-46.5 -129.5v-233q0 -118 51 -159.5t190 -41.5q173 0 347 31 q36 6 36 -31v-160q0 -26 -28 -33q-61 -14 -191.5 -25t-236.5 -11q-148 0 -243.5 26t-147.5 83.5t-71.5 132.5t-19.5 190z" />
<glyph unicode="d" horiz-adv-x="1294" d="M102 391v242q0 111 18.5 184.5t64.5 126.5t125.5 76.5t199.5 23.5q148 0 291 -63v266q0 52 -9.5 64t-52.5 18l-28 4q-20 3 -25.5 9.5t-5.5 27.5v115q0 17 6 23.5t25 9.5l204 34q120 19 152 19q51 0 51 -49v-1252q0 -41 11.5 -57t35.5 -16q27 0 52 4q10 0 14.5 -1t8 -7.5 t3.5 -20.5v-143q0 -23 -22 -31q-56 -18 -189 -18q-136 0 -188 71q-49 -27 -139.5 -49t-194.5 -22q-120 0 -199.5 23.5t-125.5 76.5t-64.5 126.5t-18.5 184.5zM424 389q0 -104 41.5 -144t144.5 -40q99 0 191 45v522q-85 47 -191 47q-55 0 -87 -6t-56 -26t-33.5 -56t-9.5 -96 v-246z" />
<glyph unicode="e" horiz-adv-x="1230" d="M102 412v219q0 126 34 209t105.5 127t161 60.5t222.5 16.5q118 0 197.5 -13t142 -48t91.5 -100t29 -164q0 -80 -20.5 -136.5t-57 -92t-99.5 -56t-136 -28t-178 -7.5h-178q0 -43 4 -69t19 -52t43.5 -39.5t77 -21.5t120.5 -8q49 0 98.5 3t97 8.5t76 9.5t70.5 10.5t47 7.5 q25 3 32 -3.5t7 -31.5v-150q0 -28 -7.5 -36t-31.5 -11q-221 -36 -467 -36q-151 0 -246 21t-152.5 73.5t-79.5 131.5t-22 206zM416 600h166q82 0 123 11t55 32.5t14 65.5q0 66 -35 96.5t-137 30.5q-108 0 -147 -42t-39 -155v-39z" />
<glyph unicode="f" horiz-adv-x="831" d="M61 838v159q0 27 21 27h125v227q0 84 14.5 138.5t55.5 98t119 63.5t200 20q75 0 156.5 -8t117.5 -19q16 -6 19.5 -11.5t3.5 -19.5l-16 -266q-2 -28 -31 -28h-125q-20 0 -29 28l-18 109q-19 8 -58 8q-92 0 -92 -111v-229h201q20 0 20 -27v-159q0 -27 -26 -27h-195v-537 q0 -36 14 -50t48 -19l57 -6q21 -2 21 -27v-147q0 -10 -8 -17.5t-17 -7.5h-526q-25 0 -25 25v145q0 26 23 29l34 6q62 10 62 82v524h-119q-27 0 -27 27z" />
<glyph unicode="g" horiz-adv-x="1280" d="M102 432v201q0 111 18.5 184.5t64.5 126.5t125.5 76.5t199.5 23.5q147 0 281 -59v8q0 49 51 49q66 0 362 -55q25 -3 25 -24v-127q0 -26 -23 -29l-37 -6q-61 -9 -61 -82v-748q0 -89 -16 -150t-54.5 -108.5t-108 -74.5t-171 -40.5t-248.5 -13.5q-267 0 -344 19 q-18 4 -24.5 11t-6.5 21v156q0 20 7 27.5t22 5.5q226 -19 334 -19q157 0 225 36t68 128v99q-131 -48 -281 -48q-120 0 -199.5 24t-125.5 77t-64.5 126.5t-18.5 184.5zM424 430q0 -104 37 -144t129 -40q101 0 201 41v491q-80 41 -181 41q-55 0 -87 -6t-56 -26t-33.5 -56 t-9.5 -96v-205z" />
<glyph unicode="h" horiz-adv-x="1376" d="M82 1370v115q0 17 6 23.5t25 9.5l204 34q120 19 152 19q51 0 51 -49v-582q75 41 185 72.5t227 31.5q61 0 105 -11t83 -40t59.5 -87t20.5 -144v-492q0 -41 11.5 -57t35.5 -16q26 0 51 4q10 0 14.5 -1t8.5 -7.5t4 -20.5v-143q0 -23 -22 -31q-56 -18 -189 -18 q-72 0 -119.5 19t-71 55.5t-32 76.5t-8.5 96v457q0 69 -31 92t-82 23q-103 0 -250 -60v-473q0 -41 10.5 -53t51.5 -16l36 -7q21 -3 21 -26v-139q0 -25 -25 -25h-505q-25 0 -25 25v137q0 25 22 28l35 7q35 5 48.5 21t13.5 61v968q0 52 -9.5 64t-52.5 18l-28 4 q-20 3 -25.5 9.5t-5.5 27.5z" />
<glyph unicode="i" horiz-adv-x="665" d="M51 846v115q0 18 6 25.5t27 10.5l203 31q94 16 119 16q49 0 66 -22t17 -68v-684q0 -41 11.5 -57t36.5 -16q26 0 51 4q10 0 14.5 -1t8 -7.5t3.5 -20.5v-143q0 -23 -22 -31q-56 -18 -189 -18q-72 0 -119.5 19t-71 55.5t-32 76.5t-8.5 96v498q0 49 -10 60.5t-51 21.5l-37 8 q-13 3 -18 9.5t-5 21.5zM147 1307v28q0 33 3.5 54.5t15 43t37 32t65.5 10.5h115q40 0 65.5 -10t37 -30.5t15 -41t3.5 -52.5v-34q0 -32 -3.5 -52.5t-15 -41t-37 -30t-65.5 -9.5h-115q-40 0 -65.5 9.5t-37 30t-15 41t-3.5 52.5z" />
<glyph unicode="j" horiz-adv-x="628" d="M-23 -207q-15 29 17 47q85 42 137 107q47 61 47 143v635q0 49 -10 60.5t-51 21.5l-37 8q-13 3 -18 9.5t-5 21.5v115q0 18 6 25.5t27 10.5l203 31q94 16 119 16q49 0 66.5 -22t17.5 -68v-813q0 -74 -10 -131t-35 -112t-72.5 -101t-118.5 -84q-104 -55 -145 -69 q-24 -11 -40 -11q-22 0 -32 19zM150 1307v28q0 34 3.5 55t14.5 42.5t36.5 32t65.5 10.5h115q40 0 65.5 -10t37 -30.5t15 -41t3.5 -52.5v-34q0 -32 -3.5 -52.5t-15 -41t-37 -30t-65.5 -9.5h-115q-40 0 -65.5 9.5t-36.5 30t-14.5 40.5t-3.5 53z" />
<glyph unicode="k" horiz-adv-x="1282" d="M41 1370v115q0 17 6 23.5t25 9.5l204 34q120 19 152 19q51 0 51 -49v-926l203 149q47 35 47 52q0 13 -27 16l-34 4q-17 3 -17 21v155q0 22 4.5 26.5t24.5 4.5h498q16 0 21 -6.5t5 -22.5v-157q0 -22 -16 -25l-49 -6q-32 -3 -70 -31l-256 -188l213 -281q58 -78 79 -96 t52 -18q5 0 25 2t28 2q13 0 17 -5.5t4 -21.5v-150q0 -11 -4 -16.5t-17 -9.5q-47 -14 -129 -14q-123 0 -187 35.5t-153 158.5l-170 236l-92 -68v-76q0 -41 10.5 -53t51.5 -16l37 -7q20 -3 20 -26v-139q0 -25 -25 -25h-505q-25 0 -25 25v137q0 25 23 28l34 7q35 5 48.5 21 t13.5 61v968q0 52 -9.5 64t-52.5 18l-28 4q-20 3 -25.5 9.5t-5.5 27.5z" />
<glyph unicode="l" horiz-adv-x="655" d="M41 1370v115q0 17 6 23.5t25 9.5l204 34q120 19 152 19q51 0 51 -49v-1252q0 -41 11.5 -57t35.5 -16q27 0 52 4q10 0 14.5 -1t8 -7.5t3.5 -20.5v-143q0 -23 -22 -31q-56 -18 -189 -18q-72 0 -119.5 19t-71 55.5t-32 76.5t-8.5 96v1020q0 52 -9.5 64t-52.5 18l-28 4 q-20 3 -25.5 9.5t-5.5 27.5z" />
<glyph unicode="m" horiz-adv-x="2021" d="M61 846v115q0 18 6 25.5t27 10.5l203 31q94 16 119 16q45 0 63.5 -19.5t20.5 -57.5q163 77 338 77q194 0 272 -108q59 29 105.5 48.5t132.5 39.5t172 20q75 0 129.5 -15t101 -53.5t70.5 -114t24 -187.5v-404q0 -41 11.5 -57t35.5 -16q27 0 52 4q10 0 14.5 -1t8 -7.5 t3.5 -20.5v-143q0 -23 -22 -31q-56 -18 -189 -18q-72 0 -119.5 19t-71 55.5t-32 76.5t-8.5 96v418q0 95 -27.5 126.5t-87.5 31.5q-71 0 -120 -8.5t-124 -42.5q5 -62 5 -78v-408q0 -42 10 -53.5t51 -15.5l37 -7q20 -3 20 -26v-139q0 -25 -24 -25h-506q-25 0 -25 25v137 q0 25 23 28l35 7q35 5 48 20.5t13 61.5v366q0 93 -30.5 125.5t-84.5 32.5q-47 0 -93 -10.5t-148 -49.5v-477q0 -42 10 -53.5t51 -15.5l37 -7q20 -3 20 -26v-139q0 -25 -24 -25h-506q-25 0 -25 25v137q0 25 23 28l35 7q35 5 48 20.5t13 61.5v446q0 49 -10 60.5t-51 21.5 l-37 8q-13 3 -18 9.5t-5 21.5z" />
<glyph unicode="n" horiz-adv-x="1337" d="M61 825v115q0 18 6 26t27 11l203 31q94 16 119 16q43 0 62 -19t22 -55q193 94 393 94q61 0 105 -11t83 -40t59.5 -87t20.5 -144v-492q0 -41 11.5 -57t35.5 -16q27 0 52 4q10 0 14.5 -1t8 -7.5t3.5 -20.5v-143q0 -23 -22 -31q-56 -18 -189 -18q-72 0 -119.5 19t-71 55.5 t-32 76.5t-8.5 96v457q0 69 -31 92t-82 23q-100 0 -231 -54v-479q0 -42 10 -53.5t51 -15.5l37 -7q20 -3 20 -26v-139q0 -25 -24 -25h-506q-25 0 -25 25v137q0 25 23 28l35 7q34 5 47 18.5t14 54.5v435q0 26 -1.5 39.5t-10.5 22t-17 11t-32 8.5l-37 9q-14 3 -18.5 9t-4.5 21z " />
<glyph unicode="o" horiz-adv-x="1253" d="M102 362v300q0 196 129 289t396 93t395.5 -93t128.5 -289v-300q0 -196 -128.5 -289t-395.5 -93t-396 93t-129 289zM422 365q0 -91 52 -122.5t153 -31.5t152.5 31.5t51.5 122.5v294q0 91 -51.5 122.5t-152.5 31.5t-153 -31.5t-52 -122.5v-294z" />
<glyph unicode="p" horiz-adv-x="1282" d="M51 846v115q0 18 6 25.5t27 10.5l203 31q94 16 119 16q67 0 79 -51q125 51 287 51q120 0 199.5 -23.5t125.5 -76.5t64.5 -126.5t18.5 -184.5v-242q0 -111 -18.5 -184.5t-64.5 -126.5t-125.5 -76.5t-199.5 -23.5q-149 0 -283 59v-182q0 -60 62 -70l78 -12q20 -3 20 -27 v-139q0 -25 -24 -25h-547q-25 0 -25 25v137q0 26 23 29l35 6q61 9 61 82v862q0 49 -10 60.5t-51 21.5l-37 8q-13 3 -18 9.5t-5 21.5zM489 246q77 -41 183 -41q55 0 87 6t56 26t33.5 56t9.5 96v246q0 104 -37 144t-129 40q-98 0 -203 -43v-530z" />
<glyph unicode="q" horiz-adv-x="1296" d="M102 391v242q0 111 18.5 184.5t64.5 126.5t125.5 76.5t199.5 23.5q149 0 297 -65v16q0 49 51 49q67 0 363 -55q24 -3 24 -24v-127q0 -27 -22 -29l-37 -6q-62 -10 -62 -82v-871q0 -59 62 -69l37 -6q20 -3 20 -27v-139q0 -25 -24 -25h-547q-25 0 -25 25v137q0 26 23 29 l75 10q62 10 62 78v170q-130 -53 -297 -53q-120 0 -199.5 23.5t-125.5 76.5t-64.5 126.5t-18.5 184.5zM424 389q0 -104 41.5 -144t144.5 -40q101 0 197 47v518q-85 49 -197 49q-55 0 -87 -6t-56 -26t-33.5 -56t-9.5 -96v-246z" />
<glyph unicode="r" horiz-adv-x="1032" d="M61 825v115q0 18 6 26t27 11l203 31q94 16 119 16q49 0 66.5 -22t17.5 -68v-8q165 118 331 118q69 0 94.5 -10.5t24.5 -44.5l-16 -338q-2 -28 -33 -28h-139q-18 0 -26 5.5t-11 22.5l-29 148q-93 -8 -196 -74v-459q0 -31 16 -48t45 -19l135 -9q13 -1 18 -8.5t5 -25.5v-136 q0 -20 -21 -20h-614q-21 0 -21 20v146q0 21 19 24l39 7q29 4 45 21t16 42v445q0 26 -1.5 39.5t-10.5 22t-17 11t-32 8.5l-37 9q-14 3 -18.5 9t-4.5 21z" />
<glyph unicode="s" horiz-adv-x="1103" d="M100 47v160q0 38 31 38q5 0 10 -1t44 -7.5t78.5 -12.5t95.5 -11.5t100 -5.5q144 0 200 15t56 57q0 36 -24.5 55t-69.5 31q-319 78 -349 88q-41 14 -69.5 31.5t-53.5 49t-37 82t-12 121.5q0 62 17 111.5t42.5 81t67 54.5t76.5 34t85.5 17.5t81 7.5t75.5 1q120 0 245 -6.5 t166 -17.5q13 -4 19 -10t7 -11t1 -14l-18 -264q-3 -29 -35 -29h-115q-20 0 -29.5 6t-13.5 23l-33 113q-70 12 -180 12q-82 0 -122 -18.5t-40 -71.5q0 -79 82 -105q26 -9 181.5 -43.5t193.5 -46.5q162 -51 162 -254q0 -95 -31.5 -160t-95.5 -101t-146.5 -51t-197.5 -15 q-98 0 -219 8.5t-189 21.5q-24 5 -30.5 10.5t-6.5 26.5z" />
<glyph unicode="t" horiz-adv-x="821" d="M51 840v157q0 27 27 27h61q32 0 58.5 17t44.5 45.5t30 55t23 58t16 41.5q11 25 28.5 33t43.5 8h84q27 0 27 -27v-231h215q26 0 26 -27v-157q0 -27 -26 -27h-217v-520q0 -51 29.5 -72.5t92.5 -21.5q28 0 75.5 4t49.5 4q10 0 15.5 -6.5t5.5 -14.5v-143q0 -14 -4.5 -22.5 t-8.5 -10t-14 -4.5q-97 -26 -235 -26q-65 0 -111 6t-88.5 22.5t-68.5 46t-41 78t-15 115.5v565h-96q-27 0 -27 27z" />
<glyph unicode="u" horiz-adv-x="1339" d="M51 825v115q0 18 6 26t27 11l203 31q94 16 119 16q49 0 66 -22t17 -68v-594q0 -45 11 -73.5t33.5 -41t44.5 -16.5t57 -4q96 0 211 37v463q0 34 -6 49t-16 20t-40 12l-36 9q-14 3 -18.5 9t-4.5 21v115q0 18 6 26t27 11l203 31q94 16 118 16q49 0 66.5 -22t17.5 -68v-664 q0 -41 11.5 -57t35.5 -16q27 0 52 4q10 0 14.5 -1t8 -7.5t3.5 -20.5v-143q0 -23 -22 -31q-56 -18 -189 -18q-140 0 -194 77q-180 -77 -402 -77q-70 0 -121 11t-96 40t-68.5 87t-23.5 144v443q0 26 -1.5 39.5t-10.5 22t-17 11t-32 8.5l-37 9q-14 3 -18.5 9t-4.5 21z" />
<glyph unicode="v" horiz-adv-x="1265" d="M49 838v166q0 20 19 20h491q14 0 18.5 -4t4.5 -16v-160q0 -21 -21 -21l-31 -4q-34 -1 -37.5 -12t13.5 -55l178 -457l186 450q18 46 14 56t-38 12l-35 4q-16 0 -16 21v155q0 22 4 26.5t24 4.5h383q19 0 19 -20v-166q0 -22 -17 -25l-65 -6q-16 -2 -29 -31l-315 -751 q-13 -25 -33 -25h-258q-22 0 -31 25l-317 751q-13 29 -29 31l-65 6q-17 3 -17 25z" />
<glyph unicode="w" horiz-adv-x="1906" d="M49 842v162q0 20 19 20h487q23 0 23 -20v-158q0 -25 -15 -25l-37 -2q-34 -1 -37.5 -13t13.5 -56l151 -418l209 647q8 20 27 20h211q11 0 15 -3.5t9 -16.5l213 -655l176 428q18 46 14 55.5t-40 11.5l-33 2q-16 3 -16 25v137q0 24 5.5 32.5t24.5 8.5h379q19 0 19 -20v-164 q0 -22 -17 -25l-65 -6q-16 -2 -29 -31l-311 -753q-6 -15 -12.5 -20t-20.5 -5h-240q-12 0 -18 6.5t-12 24.5l-191 538l-176 -544q-8 -25 -31 -25h-237q-20 0 -31 25l-315 753q-13 29 -29 31l-65 8q-17 3 -17 25z" />
<glyph unicode="x" horiz-adv-x="1107" d="M41 39v131q0 38 43 41l49 6q5 0 9 1t7.5 4t5 4t5 6t4.5 6l209 278l-185 258q-17 24 -34 30q-8 4 -19 5l-45 4q-27 0 -27 33v158q0 20 41 20h201q69 0 105 -47l176 -256l190 262q29 41 80 41h148q43 0 43 -39v-131q0 -38 -43 -41l-50 -6q-6 0 -11.5 -2.5t-7 -4t-6 -7.5 t-5.5 -7l-199 -264l201 -289q18 -24 30 -30.5t45 -9.5l50 -5q16 0 16 -24v-135q0 -29 -35 -29h-219q-70 0 -119 68l-182 251l-201 -278q-29 -41 -80 -41h-147q-43 0 -43 39z" />
<glyph unicode="y" horiz-adv-x="1255" d="M49 838v166q0 20 19 20h471q19 0 24.5 -8.5t5.5 -32.5v-135q0 -25 -16 -25l-35 -2q-31 -2 -35 -10.5t11 -52.5l182 -508l190 508q17 38 9 50t-48 15l-22 2q-14 2 -14 25v133q0 24 5.5 32.5t24.5 8.5h383q19 0 19 -20v-162q0 -22 -17 -25l-45 -8q-26 -4 -43 -51l-297 -807 q-58 -161 -113 -241t-131 -113t-204 -33q-103 0 -146 12q-34 8 -34 35v129q0 9 8 16.5t20 7.5q9 0 52 -5t57 -5q99 0 146.5 47.5t105.5 198.5h-97q-40 0 -51 33l-280 743q-13 29 -29 31l-59 6q-17 3 -17 25z" />
<glyph unicode="z" horiz-adv-x="1126" d="M72 37q0 163 20 186l559 611l-319 -7l-29 -143q-5 -20 -13.5 -28.5t-31.5 -8.5h-115q-9 0 -16 1t-11.5 1.5t-7.5 4t-5 5.5t-3 8.5t-1 10t-0.5 14t-0.5 15.5l-10 270q0 20 11.5 33.5t37.5 13.5h846q43 0 43 -37q0 -164 -20 -186l-557 -611l364 7l43 143q5 20 13.5 28.5 t31.5 8.5h115q39 0 39 -29l-25 -301q2 -19 -10.5 -33t-38.5 -14h-866q-43 0 -43 37z" />
<glyph unicode="{" horiz-adv-x="694" d="M51 653v133q0 56 43 56h27q19 0 25 5.5t6 24.5v551q0 60 21 103.5t53 68.5t82 39t96 18.5t106 4.5h113q10 0 15 -7t5 -14v-135q0 -21 -18 -24l-97 -7q-17 -1 -25 -2.5t-15 -7t-7 -14.5v-617q0 -42 -28 -70t-68 -38q39 -12 67.5 -41t28.5 -70v-579q0 -25 9 -35t38 -14 l97 -7q18 -3 18 -24v-129q0 -7 -5 -14t-15 -7h-113q-73 0 -134 11t-113.5 36t-82.5 71.5t-30 111.5v508q0 20 -1 29t-6 17.5t-16 8.5q-48 0 -62 13.5t-14 45.5z" />
<glyph unicode="|" horiz-adv-x="356" d="M82 -133v1745q0 29 16 44t43 15h90q43 0 43 -61l-2 -1743q0 -30 -2.5 -43t-14 -22t-36.5 -9h-69q-44 0 -56 12.5t-12 61.5z" />
<glyph unicode="}" horiz-adv-x="694" d="M51 -49q0 21 19 24l96 7q29 4 38 14t9 35v579q0 41 28.5 70t67.5 41q-40 10 -68 38t-28 70v617q0 14 -11 18t-36 6l-96 7q-19 3 -19 24v135q0 7 5.5 14t15.5 7h112q60 0 106.5 -4.5t96 -18.5t82 -39t53.5 -68.5t21 -103.5v-551q0 -19 5.5 -24.5t24.5 -5.5h27q43 0 43 -56 v-133q0 -32 -14 -45.5t-62 -13.5q-8 0 -13 -3.5t-6.5 -13.5t-2 -15.5t-0.5 -22.5v-508q0 -65 -30 -111.5t-83 -71.5t-114 -36t-134 -11h-112q-10 0 -15.5 7t-5.5 14v129z" />
<glyph unicode="~" horiz-adv-x="1146" d="M61 570q2 17 17 30q86 78 152.5 110.5t150.5 32.5q51 0 108 -18.5t99 -40.5t96 -40.5t102 -18.5q80 0 140 51q41 36 63 10l86 -90q24 -24 -2 -47q-88 -83 -155.5 -116.5t-155.5 -33.5q-51 0 -108.5 18.5t-100 41t-97 41t-102.5 18.5q-40 0 -73 -12t-74 -47 q-30 -27 -55 -2l-82 86q-11 10 -9 27z" />
<glyph unicode="&#xa1;" horiz-adv-x="593" d="M125 -291l41 875q0 40 33 55.5t100 15.5q63 0 95.5 -15.5t33.5 -55.5l41 -873q2 -41 -17.5 -65.5t-58.5 -24.5h-188q-42 0 -63 22.5t-17 65.5zM143 840v110q0 94 156 94t156 -94v-110q0 -59 -40 -82t-116 -23t-116 23t-40 82z" />
<glyph unicode="&#xa2;" horiz-adv-x="1087" d="M102 438v211q0 86 14.5 144.5t54.5 108t115 77.5t191 37v127q0 28 16.5 43.5t43.5 15.5h90q43 0 43 -61v-123q180 -3 270 -21q21 -4 21 -28l-15 -310q0 -13 -8 -19.5t-18 -6.5h-138q-18 0 -24 26l-39 134q-47 8 -139 8q-85 0 -124.5 -42.5t-39.5 -107.5v-215 q0 -99 43.5 -132.5t167.5 -33.5q178 0 323 27q35 6 35 -29v-159q0 -25 -27 -33q-79 -20 -276 -31v-102q0 -30 -2.5 -43t-14 -22t-36.5 -9h-70q-43 0 -55 12.5t-12 61.5v100q-97 4 -166 23t-112.5 49.5t-68.5 80t-34 106t-9 136.5z" />
<glyph unicode="&#xa3;" horiz-adv-x="1284" d="M106 625v155q0 25 7 32t26 7h97v344q0 76 31 134.5t79.5 93.5t115 57.5t130 30.5t133.5 8q124 0 262.5 -18t198.5 -44q1 -1 6.5 -4.5t6.5 -4.5t5 -4.5t5 -5.5t2 -5.5t1 -7.5l-16 -336q-1 -15 -5.5 -22.5t-10 -9t-17.5 -1.5h-127q-31 0 -39 31l-39 192q-136 19 -213 19 q-100 0 -151 -40.5t-51 -138.5v-268h252q19 0 25.5 -6.5t6.5 -30.5v-155q0 -25 -6.5 -32t-25.5 -7h-252v-352l379 12q18 0 26.5 6t14.5 20l59 185q9 28 31 28h184q14 0 21 -5.5t6 -22.5l-41 -428q0 -9 -1 -14t-6 -10.5t-16 -6.5h-1069q-10 0 -15 6.5t-5 13.5v166q0 22 18 25 l59 6q29 4 38.5 14t9.5 35v322h-97q-19 0 -26 7t-7 30z" />
<glyph unicode="&#xa5;" horiz-adv-x="1488" d="M41 1298v148q0 29 29 29h563q24 0 24 -25v-143q0 -27 -20 -29l-62 -6q-29 -3 -33 -13.5t15 -41.5l225 -396l246 396q18 31 14 42t-32 13l-49 4q-10 1 -14.5 3t-8.5 9t-4 21v141q0 25 24 25h490q20 0 20 -25v-156q0 -21 -20 -24l-47 -8q-36 -4 -48 -14.5t-42 -57.5 l-277 -426h164q15 0 21 -6t6 -25v-121q0 -20 -6 -25t-21 -5h-278v-74h278q15 0 21 -5t6 -24v-123q0 -19 -6 -24.5t-21 -5.5h-278v-62q0 -25 10.5 -35t46.5 -14l82 -10q22 -3 28.5 -8.5t6.5 -26.5v-150q0 -20 -25 -20h-641q-20 0 -20 20v160q0 22 20 25l109 10q35 3 46 13 t11 36v62h-301q-13 0 -19 5.5t-6 24.5v121q0 20 5.5 25.5t19.5 5.5h301v35l-25 39h-276q-14 0 -19.5 4.5t-5.5 23.5v123q0 19 6 25t19 6h168l-254 422q-27 46 -47.5 59.5t-55.5 18.5l-45 6q-11 2 -14.5 7.5t-3.5 20.5z" />
<glyph unicode="&#xa7;" horiz-adv-x="1327" d="M111 1124q0 95 24.5 161.5t66.5 106t115.5 61.5t152 29t196.5 7q391 0 493 -31q22 -7 27.5 -16.5t3.5 -24.5l-21 -330q-3 -36 -43 -36h-112q-25 0 -35 8t-16 31l-43 167q-108 11 -224 11q-64 0 -103.5 -2t-76.5 -9.5t-56.5 -21t-30.5 -36t-11 -56.5q0 -69 31 -109 t100 -57l557 -133q35 -7 47.5 -41t-2.5 -80l-37 -107q-12 -34 -41.5 -48t-66.5 -5l-674 168q-65 16 -110 53t-68.5 91t-33 113.5t-9.5 135.5zM112.5 -185.5q-0.5 7.5 0.5 15.5l20 328q3 37 43 37h113q25 0 35 -7t16 -30l43 -168q128 -13 223 -13q158 0 218.5 23t60.5 104 q0 67 -31 107t-100 57l-588 146q-70 15 -41 118l35 109q10 33 39.5 47.5t66.5 5.5l705 -178q65 -16 110 -53t68.5 -91t33 -113.5t9.5 -135.5q0 -80 -15.5 -139t-49.5 -99.5t-77.5 -66t-110.5 -39t-136 -18.5t-166 -5q-145 0 -293.5 8.5t-200.5 24.5q-15 5 -22.5 11.5t-8 14z " />
<glyph unicode="&#xa8;" horiz-adv-x="833" d="M90 1640v99q0 27 13 44.5t37 24.5t43 9t46 2q64 0 84.5 -23t20.5 -72v-100q0 -21 -8 -35.5t-18.5 -22t-31 -11.5t-36 -4.5t-43.5 -0.5q-64 0 -85.5 22t-21.5 68zM500 1640v99q0 27 13 44.5t37 24.5t43 9t46 2q64 0 84 -23t20 -72v-100q0 -21 -8 -36t-18 -22t-31.5 -11 t-36 -4.5t-43.5 -0.5q-64 0 -85 22t-21 68z" />
<glyph unicode="&#xa9;" horiz-adv-x="1564" d="M74 543v348q0 102 18.5 180.5t66.5 147.5t126 113.5t200 69.5t287 25q164 0 286 -25t200 -69.5t125.5 -113.5t66 -147.5t18.5 -180.5v-348q0 -102 -18.5 -181.5t-66 -149t-125.5 -115t-200 -71.5t-286 -26t-287 26t-200.5 71.5t-125.5 115t-66.5 149t-18.5 181.5z M340 543q0 -73 21.5 -131t60 -96.5t93.5 -63.5t118.5 -36t138.5 -11q96 0 171 18t133.5 57t90 105.5t31.5 157.5v348q0 332 -426 332q-432 0 -432 -332v-348zM457 653v160q0 73 14 121.5t52 87t109.5 56.5t180.5 18q45 0 78.5 -1.5t69 -5t55 -12t18.5 -20.5l-10 -207 q0 -19 -20 -19h-95q-15 0 -18 19l-29 84q-25 6 -59 6q-66 0 -96.5 -34.5t-30.5 -90.5v-164q0 -83 34 -112t128 -29q18 0 32 4l29 84q3 20 19 20h94q20 0 20 -20l10 -205q0 -18 -14 -22q-26 -6 -119.5 -13.5t-124.5 -7.5q-101 0 -166.5 18.5t-100 59.5t-47.5 93t-13 132z" />
<glyph unicode="&#xab;" horiz-adv-x="1107" d="M82.5 544q-0.5 11 13.5 36l174 288q11 19 22.5 25t33.5 6h237q19 0 24.5 -13.5t-3.5 -23.5l-176 -319l178 -314q8 -12 1 -24t-22 -12h-243q-34 0 -56 36l-168 279q-15 25 -15.5 36zM519.5 544q-0.5 11 12.5 36l175 288q12 19 23 25t32 6h237q19 0 24.5 -13.5t-3.5 -23.5 l-176 -319l178 -314q8 -12 1 -24t-22 -12h-243q-34 0 -56 36l-167 279q-15 25 -15.5 36z" />
<glyph unicode="&#xac;" horiz-adv-x="995" d="M14 352v195h887v-547h-209v352h-678z" />
<glyph unicode="&#xad;" horiz-adv-x="634" d="M45 502v155q0 25 7 32t26 7h491q19 0 26 -7t7 -30v-155q0 -25 -7 -32t-26 -7h-491q-19 0 -26 7t-7 30z" />
<glyph unicode="&#xae;" horiz-adv-x="790" d="M86 1120v226q0 122 75.5 178.5t244.5 56.5q168 0 243.5 -55.5t75.5 -179.5v-226q0 -124 -76 -179.5t-246 -55.5q-171 0 -244 55.5t-73 179.5zM182 1104q0 -72 48 -103.5t176 -31.5q119 0 170 33.5t51 101.5v258q0 66 -49 101.5t-172 35.5q-224 0 -224 -139v-256z M250 1069v12q0 13 6.5 18t15 3.5t15 1t6.5 12.5v254q0 9 -21.5 10t-21.5 17v33q0 6 22 6h156q69 0 98 -23.5t29 -93.5q0 -74 -57 -94q7 -5 14 -19l8 -16l31 -74q3 -6 7 -8.5t6.5 -2.5t7.5 0.5t6 0.5q2 1 3.5 -0.5t2 -4t0.5 -4.5v-5.5v-4.5v-24q0 -10 -6 -12t-28 -2h-5.5 h-5.5q-31 0 -44.5 8.5t-23.5 36.5l-37 96q-4 12 -9.5 17.5t-9 6t-10.5 -0.5t-8 -1h-30v-96q0 -13 21.5 -13t21.5 -16v-32q0 -6 -19 -6h-135q-6 0 -6 20zM367 1266h22q32 0 45 0.5t26.5 5.5t17 16t3.5 31q0 35 -11 46t-50 11h-49q-4 -4 -4 -10v-100z" />
<glyph unicode="&#xaf;" horiz-adv-x="634" d="M49 1614v115q0 25 7 31.5t26 6.5h491q19 0 26 -6.5t7 -29.5v-115q0 -25 -7 -32t-26 -7h-491q-19 0 -26 7t-7 30z" />
<glyph unicode="&#xb0;" horiz-adv-x="770" d="M66 1157q0 136 89.5 228t229.5 92q144 0 232 -93.5t88 -226.5q0 -135 -90.5 -227t-229.5 -92q-144 0 -231.5 93.5t-87.5 225.5zM266 1157q0 -63 30.5 -103t88.5 -40t88.5 40t30.5 103q0 62 -31 102.5t-88 40.5t-88 -40.5t-31 -102.5z" />
<glyph unicode="&#xb1;" horiz-adv-x="927" d="M45 41v145q0 14 8.5 22.5t22.5 8.5h776q14 0 22.5 -8.5t8.5 -22.5v-145q0 -13 -8.5 -22t-22.5 -9h-776q-14 0 -22.5 9t-8.5 22zM45 610v146q0 13 8.5 21.5t22.5 8.5h280v285q0 13 9 22t22 9h154q13 0 21.5 -8.5t8.5 -22.5v-285h281q14 0 22.5 -8.5t8.5 -21.5v-146 q0 -13 -8.5 -21.5t-22.5 -8.5h-281v-275q0 -14 -8.5 -22.5t-21.5 -8.5h-154q-13 0 -22 9t-9 22v275h-280q-14 0 -22.5 8.5t-8.5 21.5z" />
<glyph unicode="&#xb4;" horiz-adv-x="626" d="M66 1702q0 51 57 65q232 52 375 93q57 18 67 -11l21 -51q8 -19 -29 -51q-170 -124 -367 -188q-37 -12 -61 3.5t-49 69.5q-14 41 -14 70z" />
<glyph unicode="&#xb5;" horiz-adv-x="1275" d="M51 825v115q0 18 6 26t27 11l203 31q94 16 119 16q49 0 66 -22t17 -68v-619q3 -37 15 -60t34 -33.5t43 -13.5t54 -3q96 0 211 37v463q0 34 -6 49t-16 20t-40 12l-36 9q-14 3 -18.5 9t-4.5 21v115q0 18 6 26t27 11l203 31q94 16 118 16q49 0 66.5 -22t17.5 -68v-664 q0 -41 11.5 -57t35.5 -16q27 0 52 4q10 0 14.5 -1t8 -7.5t3.5 -20.5v-143q0 -23 -22 -31q-56 -18 -189 -18q-140 0 -194 77q-170 -74 -387 -77q0 -51 1 -126t1 -92q0 -67 -52 -67h-245q-54 0 -54 55q0 51 12.5 202.5t12.5 231.5v521q0 26 -1.5 39.5t-10.5 22t-17 11t-32 8.5 l-37 9q-14 3 -18.5 9t-4.5 21z" />
<glyph unicode="&#xb6;" horiz-adv-x="1363" d="M49 963q0 92 9 165t33 139.5t63 111t101.5 70.5t145.5 26h271q16 0 26 -3.5t13.5 -11.5t4.5 -14.5t1 -18.5l2 -1679q0 -24 -16 -38.5t-37 -14.5h-162q-51 4 -51 53v772h-43q-78 0 -141 23.5t-113.5 73.5t-78.5 138t-28 208zM924 -260v1685q2 25 10 35.5t33 14.5h303 q10 0 15 -7t5 -14v-104q0 -22 -18 -25l-39 -6q-28 -3 -39 -14l-4 -9v-1550q0 -29 -7.5 -40t-31.5 -11h-162q-34 0 -49.5 8.5t-15.5 36.5z" />
<glyph unicode="&#xb7;" horiz-adv-x="456" d="M70 559v111q0 94 155 94q156 0 156 -94v-111q0 -59 -40 -81.5t-116 -22.5t-115.5 22.5t-39.5 81.5z" />
<glyph unicode="&#xb8;" horiz-adv-x="524" d="M23 -354l40 102q6 13 10 15t17 -1q69 -12 123 -12q20 0 30 0.5t22.5 2.5t18 7t5.5 13q0 19 -24.5 26t-99.5 15q-21 3 -32 4q-10 1 -13.5 6.5t-1.5 10.5l1 5l71 187h191l-37 -88q86 -13 126 -50.5t40 -105.5q0 -184 -252 -184q-144 0 -223 32q-5 2 -8 5t-4 6t0 4z" />
<glyph unicode="&#xbb;" horiz-adv-x="1107" d="M84.5 205q-6.5 12 1.5 24l178 314l-176 319q-9 10 -3.5 23.5t24.5 13.5h237q21 0 32 -6t23 -25l174 -288q14 -25 13.5 -36t-15.5 -36l-167 -279q-22 -36 -56 -36h-244q-15 0 -21.5 12zM520.5 885.5q5.5 13.5 24.5 13.5h237q22 0 33.5 -6t22.5 -25l174 -288 q14 -25 13.5 -36t-15.5 -36l-168 -279q-22 -36 -56 -36h-243q-15 0 -22 12t1 24l178 314l-176 319q-9 10 -3.5 23.5z" />
<glyph unicode="&#xbf;" horiz-adv-x="1107" d="M49 -111v-14q0 -74 24.5 -128t67.5 -88t110 -54.5t143 -28.5t177 -8q331 0 453 22q41 8 41 23l-21 369q-1 11 -7 16t-11.5 5.5t-19.5 0.5h-125q-12 0 -17 -0.5t-11.5 -5.5t-10.5 -16l-45 -197q-143 -14 -201 -14q-123 0 -180.5 25.5t-57.5 97.5q0 36 25 71t64.5 64.5 t88 60t96.5 65t87.5 72t64.5 87t25 104.5q0 126 -180 231l-54 31q-45 25 -75 -8l-97 -105q-35 -37 -4 -65l52 -47q30 -28 30 -39q0 -15 -22 -31q-28 -22 -80 -61q-72 -54 -103 -78t-76.5 -61.5t-60 -52t-38.5 -43t-29 -43.5t-13.5 -43.5t-9 -52t-0.5 -61.5zM440 831v111 q0 59 40 82t116 23t116 -23t40 -82v-111q0 -94 -156 -94t-156 94z" />
<glyph unicode="&#xc0;" horiz-adv-x="1589" d="M20 20v160q0 22 17 25l55 6q30 3 44.5 17t31.5 57l463 1159q9 31 33 31h258q20 0 27 -8t16 -33l462 -1147q18 -44 38 -58.5t59 -19.5l30 -4q19 -3 19 -21v-164q0 -20 -19 -20h-534q-15 0 -19 5t-4 30v141q0 22 17 25l61 8q39 3 19 53l-56 141h-555l-51 -139 q-17 -53 27 -59l51 -6q16 -3 16 -25v-149q0 -14 -4.5 -19.5t-17.5 -5.5h-465q-19 0 -19 20zM557 604h401l-204 526zM571 1778q3 21 21 51q16 27 63 10q174 -64 396 -72q57 -3 57 -59q0 -35 -14 -76q-24 -68 -49 -88.5t-62 -5.5q-211 64 -387 188q-25 25 -25 52z" />
<glyph unicode="&#xc1;" horiz-adv-x="1589" d="M20 20v160q0 22 17 25l55 6q30 3 44.5 17t31.5 57l463 1159q9 31 33 31h258q20 0 27 -8t16 -33l462 -1147q18 -44 38 -58.5t59 -19.5l30 -4q19 -3 19 -21v-164q0 -20 -19 -20h-534q-15 0 -19 5t-4 30v141q0 22 17 25l61 8q39 3 19 53l-56 141h-555l-51 -139 q-17 -53 27 -59l51 -6q16 -3 16 -25v-149q0 -14 -4.5 -19.5t-17.5 -5.5h-465q-19 0 -19 20zM494 1702q0 51 57 65q232 52 375 93q57 18 67 -11l21 -51q8 -19 -29 -51q-170 -124 -367 -188q-37 -12 -61 3.5t-49 69.5q-14 41 -14 70zM557 604h401l-204 526z" />
<glyph unicode="&#xc2;" horiz-adv-x="1589" d="M20 20v160q0 22 17 25l55 6q30 3 44.5 17t31.5 57l463 1159q9 31 33 31h258q20 0 27 -8t16 -33l462 -1147q18 -44 38 -58.5t59 -19.5l30 -4q19 -3 19 -21v-164q0 -20 -19 -20h-534q-15 0 -19 5t-4 30v141q0 22 17 25l61 8q39 3 19 53l-56 141h-555l-51 -139 q-17 -53 27 -59l51 -6q16 -3 16 -25v-149q0 -14 -4.5 -19.5t-17.5 -5.5h-465q-19 0 -19 20zM430 1569q-23 33 12 59l306 197q20 8 30 8q11 0 31 -8l305 -197q35 -26 12 -59q-15 -21 -33.5 -25t-50.5 6l-264 64l-264 -64q-32 -11 -50.5 -7t-33.5 26zM557 604h401l-204 526z " />
<glyph unicode="&#xc3;" horiz-adv-x="1589" d="M20 20v160q0 22 17 25l55 6q30 3 44.5 17t31.5 57l463 1159q9 31 33 31h258q20 0 27 -8t16 -33l462 -1147q18 -44 38 -58.5t59 -19.5l30 -4q19 -3 19 -21v-164q0 -20 -19 -20h-534q-15 0 -19 5t-4 30v141q0 22 17 25l61 8q39 3 19 53l-56 141h-555l-51 -139 q-17 -53 27 -59l51 -6q16 -3 16 -25v-149q0 -14 -4.5 -19.5t-17.5 -5.5h-465q-19 0 -19 20zM494 1715q2 12 12 22q50 55 92 78.5t94 23.5q37 0 100.5 -27.5t100.5 -27.5q40 0 70 35q28 28 45 8l82 -125q16 -19 -3 -35q-54 -58 -96 -82t-96 -24q-37 0 -103 27.5t-100 27.5 q-40 0 -74 -41q-23 -19 -40 -2l-78 123q-8 7 -6 19zM557 604h401l-204 526z" />
<glyph unicode="&#xc4;" horiz-adv-x="1589" d="M20 20v160q0 22 17 25l55 6q30 3 44.5 17t31.5 57l463 1159q9 31 33 31h258q20 0 27 -8t16 -33l462 -1147q18 -44 38 -58.5t59 -19.5l30 -4q19 -3 19 -21v-164q0 -20 -19 -20h-534q-15 0 -19 5t-4 30v141q0 22 17 25l61 8q39 3 19 53l-56 141h-555l-51 -139 q-17 -53 27 -59l51 -6q16 -3 16 -25v-149q0 -14 -4.5 -19.5t-17.5 -5.5h-465q-19 0 -19 20zM475 1640v99q0 27 13 44.5t37 24.5t43 9t46 2q64 0 84.5 -23t20.5 -72v-100q0 -21 -8 -35.5t-18.5 -22t-31 -11.5t-36 -4.5t-43.5 -0.5q-64 0 -85.5 22t-21.5 68zM557 604h401 l-204 526zM885 1640v99q0 27 13 44.5t37 24.5t43 9t46 2q64 0 84 -23t20 -72v-100q0 -21 -8 -36t-18 -22t-31.5 -11t-36 -4.5t-43.5 -0.5q-64 0 -85 22t-21 68z" />
<glyph unicode="&#xc5;" horiz-adv-x="1589" d="M20 20v160q0 22 17 25l55 6q30 3 44.5 17t31.5 57l463 1159q9 31 33 31h258q20 0 27 -8t16 -33l462 -1147q18 -44 38 -58.5t59 -19.5l30 -4q19 -3 19 -21v-164q0 -20 -19 -20h-534q-15 0 -19 5t-4 30v141q0 22 17 25l61 8q39 3 19 53l-56 141h-555l-51 -139 q-17 -53 27 -59l51 -6q16 -3 16 -25v-149q0 -14 -4.5 -19.5t-17.5 -5.5h-465q-19 0 -19 20zM557 604h401l-204 526zM557 1722v72q0 90 59 132t181 42q124 0 182.5 -42t58.5 -132v-72q0 -89 -59 -131.5t-182 -42.5q-122 0 -181 42t-59 132zM727 1745q0 -28 18 -37.5t52 -9.5 t51.5 9.5t17.5 37.5v27q0 28 -17.5 37.5t-51.5 9.5t-52 -9.5t-18 -37.5v-27z" />
<glyph unicode="&#xc6;" horiz-adv-x="2287" d="M98 20v160q0 22 17 25l55 6q29 3 46.5 16.5t49.5 57.5l824 1177q3 13 22 13h1030q11 0 16.5 -5.5t6 -10.5t0.5 -15l-17 -391q-1 -18 -8.5 -23.5t-23.5 -5.5h-154q-14 0 -20.5 6t-10.5 23l-33 137q-5 22 -12.5 29.5t-32.5 7.5l-436 12v-383h481q20 0 27.5 -7.5t7.5 -27.5 v-168q0 -20 -8.5 -27.5t-32.5 -7.5h-475v-385l469 15q18 0 26 7t15 24l60 151q8 25 30 25h172q30 0 27 -29l-41 -395q-1 -12 -2.5 -17.5t-7.5 -9.5t-17 -4h-1159q-22 0 -22 20v166q0 22 20 25l49 6q35 5 44.5 13t9.5 36v117h-478l-82 -119q-38 -53 7 -59l51 -6q16 -3 16 -25 v-149q0 -14 -4.5 -19.5t-17.5 -5.5h-465q-19 0 -19 20zM768 604h322v459z" />
<glyph unicode="&#xc7;" horiz-adv-x="1347" d="M45 545v401q0 286 162 413.5t481 127.5q124 0 282.5 -9t198.5 -22q21 -8 21 -29l-16 -374q0 -29 -33 -29h-156q-25 0 -31 29l-36 186q-86 12 -228 12q-67 0 -120 -17.5t-85.5 -46t-53.5 -68.5t-29.5 -81t-8.5 -88l2 -407q0 -165 85 -237.5t302 -72.5q169 0 387 37 q26 5 40 -1.5t14 -32.5v-177q0 -21 -7 -30t-32 -15q-108 -26 -365 -32l-10 -27q86 -13 126 -50.5t40 -105.5q0 -184 -252 -184q-141 0 -223 33q-5 2 -8.5 5t-4.5 5.5t0 3.5l41 102q6 14 9.5 16t17.5 -1q69 -12 123 -12q22 0 30 0.5t22 2t19 6.5t5 13q0 19 -24.5 26t-99.5 15 q-21 3 -32 4q-10 1 -13.5 6.5t-2.5 11.5l2 5l47 125q-144 7 -248.5 37t-169 75.5t-102.5 116.5t-52 149.5t-14 184.5z" />
<glyph unicode="&#xc8;" horiz-adv-x="1372" d="M92 20v166q0 22 21 25l49 6q35 5 44 12.5t9 36.5v942q0 26 -9.5 35.5t-43.5 13.5l-49 7q-21 3 -21 24v166q0 21 23 21h1112q11 0 16 -5.5t5.5 -10.5t0.5 -15l-16 -391q-1 -18 -9 -23.5t-24 -5.5h-153q-14 0 -20.5 6t-10.5 23l-33 137q-5 22 -12.5 29.5t-32.5 7.5l-395 10 v-381h440q20 0 27.5 -7.5t7.5 -27.5v-168q0 -20 -8.5 -27.5t-32.5 -7.5h-434v-382l428 12q18 0 26 7t15 24l59 151q8 25 31 25h172q29 0 26 -29l-40 -395q-1 -12 -2.5 -17.5t-7.5 -9.5t-17 -4h-1118q-23 0 -23 20zM481 1774q3 21 21 51q16 27 63 10q174 -64 396 -72 q57 -3 57 -59q0 -35 -14 -76q-24 -68 -49 -88.5t-62 -5.5q-211 64 -387 188q-25 25 -25 52z" />
<glyph unicode="&#xc9;" horiz-adv-x="1372" d="M92 20v166q0 22 21 25l49 6q35 5 44 12.5t9 36.5v942q0 26 -9.5 35.5t-43.5 13.5l-49 7q-21 3 -21 24v166q0 21 23 21h1112q11 0 16 -5.5t5.5 -10.5t0.5 -15l-16 -391q-1 -18 -9 -23.5t-24 -5.5h-153q-14 0 -20.5 6t-10.5 23l-33 137q-5 22 -12.5 29.5t-32.5 7.5l-395 10 v-381h440q20 0 27.5 -7.5t7.5 -27.5v-168q0 -20 -8.5 -27.5t-32.5 -7.5h-434v-382l428 12q18 0 26 7t15 24l59 151q8 25 31 25h172q29 0 26 -29l-40 -395q-1 -12 -2.5 -17.5t-7.5 -9.5t-17 -4h-1118q-23 0 -23 20zM444 1698q0 51 58 65q249 56 375 92q57 18 67 -10l21 -51 q8 -19 -29 -51q-172 -126 -367 -189q-37 -12 -61 4t-49 70q-15 44 -15 70z" />
<glyph unicode="&#xca;" horiz-adv-x="1372" d="M92 20v166q0 22 21 25l49 6q35 5 44 12.5t9 36.5v942q0 26 -9.5 35.5t-43.5 13.5l-49 7q-21 3 -21 24v166q0 21 23 21h1112q11 0 16 -5.5t5.5 -10.5t0.5 -15l-16 -391q-1 -18 -9 -23.5t-24 -5.5h-153q-14 0 -20.5 6t-10.5 23l-33 137q-5 22 -12.5 29.5t-32.5 7.5l-395 10 v-381h440q20 0 27.5 -7.5t7.5 -27.5v-168q0 -20 -8.5 -27.5t-32.5 -7.5h-434v-382l428 12q18 0 26 7t15 24l59 151q8 25 31 25h172q29 0 26 -29l-40 -395q-1 -12 -2.5 -17.5t-7.5 -9.5t-17 -4h-1118q-23 0 -23 20zM360 1565q-23 33 13 59l305 197q20 8 31 8q10 0 30 -8 l305 -197q36 -26 13 -59q-15 -21 -33.5 -25t-50.5 6l-264 64l-265 -64q-32 -11 -50.5 -7t-33.5 26z" />
<glyph unicode="&#xcb;" horiz-adv-x="1372" d="M92 20v166q0 22 21 25l49 6q35 5 44 12.5t9 36.5v942q0 26 -9.5 35.5t-43.5 13.5l-49 7q-21 3 -21 24v166q0 21 23 21h1112q11 0 16 -5.5t5.5 -10.5t0.5 -15l-16 -391q-1 -18 -9 -23.5t-24 -5.5h-153q-14 0 -20.5 6t-10.5 23l-33 137q-5 22 -12.5 29.5t-32.5 7.5l-395 10 v-381h440q20 0 27.5 -7.5t7.5 -27.5v-168q0 -20 -8.5 -27.5t-32.5 -7.5h-434v-382l428 12q18 0 26 7t15 24l59 151q8 25 31 25h172q29 0 26 -29l-40 -395q-1 -12 -2.5 -17.5t-7.5 -9.5t-17 -4h-1118q-23 0 -23 20zM385 1636v99q0 27 13 44.5t37 24.5t43 9t46 2 q64 0 84.5 -23t20.5 -72v-100q0 -21 -8 -35.5t-18.5 -22t-31 -11.5t-36 -4.5t-43.5 -0.5q-64 0 -85.5 22t-21.5 68zM795 1636v99q0 27 13 44.5t37 24.5t43 9t46 2q64 0 84 -23t20 -72v-100q0 -21 -8 -36t-18 -22t-31.5 -11t-36 -4.5t-43.5 -0.5q-64 0 -85 22t-21 68z" />
<glyph unicode="&#xcc;" horiz-adv-x="757" d="M92 20v162q0 20 19 23l51 6q33 4 43 14t10 35v954q0 26 -10 36t-43 14l-49 6q-21 3 -21 24v160q0 21 21 21h532q21 0 21 -21v-156q0 -17 -3.5 -21.5t-17.5 -6.5l-49 -6q-33 -4 -43 -14t-10 -36v-954q0 -26 10 -36t43 -13l49 -4q13 -1 17 -6.5t4 -18.5v-159q0 -23 -23 -23 h-528q-23 0 -23 20zM133 1774q3 21 21 51q16 27 63 10q174 -64 395 -72q58 -3 58 -59q0 -32 -15 -76q-25 -68 -49 -88.5t-61 -5.5q-211 64 -387 188q-25 25 -25 52z" />
<glyph unicode="&#xcd;" horiz-adv-x="757" d="M92 20v162q0 20 19 23l51 6q33 4 43 14t10 35v954q0 26 -10 36t-43 14l-49 6q-21 3 -21 24v160q0 21 21 21h532q21 0 21 -21v-156q0 -17 -3.5 -21.5t-17.5 -6.5l-49 -6q-33 -4 -43 -14t-10 -36v-954q0 -26 10 -36t43 -13l49 -4q13 -1 17 -6.5t4 -18.5v-159q0 -23 -23 -23 h-528q-23 0 -23 20zM96 1698q0 51 58 65q244 55 374 92q58 19 68 -10l20 -51q8 -20 -28 -51q-172 -126 -367 -189q-37 -12 -61 4t-49 70q-15 44 -15 70z" />
<glyph unicode="&#xce;" horiz-adv-x="757" d="M12 1565q-23 33 13 59l305 197q20 8 30 8q11 0 31 -8l305 -197q36 -26 13 -59q-15 -21 -33.5 -25t-50.5 6l-265 64l-264 -64q-32 -11 -50.5 -7t-33.5 26zM92 20v162q0 20 19 23l51 6q33 4 43 14t10 35v954q0 26 -10 36t-43 14l-49 6q-21 3 -21 24v160q0 21 21 21h532 q21 0 21 -21v-156q0 -17 -3.5 -21.5t-17.5 -6.5l-49 -6q-33 -4 -43 -14t-10 -36v-954q0 -26 10 -36t43 -13l49 -4q13 -1 17 -6.5t4 -18.5v-159q0 -23 -23 -23h-528q-23 0 -23 20z" />
<glyph unicode="&#xcf;" horiz-adv-x="757" d="M37 1636v99q0 27 13 44.5t37 24.5t43 9t46 2q64 0 84.5 -23t20.5 -72v-100q0 -21 -8 -35.5t-18.5 -22t-31.5 -11.5t-36.5 -4.5t-43.5 -0.5q-64 0 -85 22t-21 68zM92 20v162q0 20 19 23l51 6q33 4 43 14t10 35v954q0 26 -10 36t-43 14l-49 6q-21 3 -21 24v160q0 21 21 21 h532q21 0 21 -21v-156q0 -17 -3.5 -21.5t-17.5 -6.5l-49 -6q-33 -4 -43 -14t-10 -36v-954q0 -26 10 -36t43 -13l49 -4q13 -1 17 -6.5t4 -18.5v-159q0 -23 -23 -23h-528q-23 0 -23 20zM446 1636v99q0 27 13 44.5t37.5 24.5t43.5 9t46 2q64 0 84 -23t20 -72v-100q0 -21 -8 -36 t-18 -22t-31.5 -11t-36 -4.5t-43.5 -0.5q-64 0 -85.5 22t-21.5 68z" />
<glyph unicode="&#xd0;" horiz-adv-x="1640" d="M82 625v155q0 25 7 32t26 7h100v389q0 26 -9.5 35.5t-43.5 13.5l-49 7q-21 3 -21 24v166q0 21 23 21h696q696 0 696 -560v-346q0 -569 -696 -569h-696q-23 0 -23 20v166q0 22 21 25l49 6q35 5 44 12.5t9 36.5v322h-100q-19 0 -26 7t-7 30zM543 223h278q161 0 253.5 83.5 t92.5 262.5v346q0 336 -346 336h-278v-432h186q19 0 26 -7t7 -30v-155q0 -25 -7 -32t-26 -7h-186v-365z" />
<glyph unicode="&#xd1;" horiz-adv-x="1630" d="M92 20v158q0 22 19 25l59 6q31 3 39 11.5t8 37.5v1010l-82 8q-18 3 -18 24v154q0 7 5 14t15 7h281q94 0 126.5 -12t67.5 -62l564 -823v639q0 25 -10.5 35.5t-39.5 13.5l-49 6q-17 1 -22.5 9.5t-5.5 33.5v139q0 21 20 21h459q20 0 20 -21v-158q0 -21 -18 -24l-60 -6 q-30 -3 -37.5 -11t-7.5 -38v-1178q0 -39 -34 -39h-152q-24 0 -35.5 5t-23.5 22l-713 1028v-797q0 -26 9.5 -36t37.5 -13l49 -6q17 -1 23 -6.5t6 -16.5v-160q0 -20 -21 -20h-458q-21 0 -21 20zM512 1715q2 12 12 22q50 55 92.5 78.5t94.5 23.5q37 0 100 -27.5t100 -27.5 q40 0 70 35q28 28 45 8l82 -125q16 -20 -2 -35q-54 -58 -96.5 -82t-96.5 -24q-37 0 -102 27.5t-100 27.5q-40 0 -74 -41q-23 -20 -41 -2l-78 123q-8 7 -6 19z" />
<glyph unicode="&#xd2;" d="M133 551v371q0 155 31 256t110.5 172.5t217.5 103t350 31.5q170 0 290.5 -21.5t201.5 -62.5t128 -111t66.5 -157.5t19.5 -210.5v-371q0 -123 -19.5 -211.5t-66.5 -159.5t-127.5 -113.5t-202 -64.5t-290.5 -22q-170 0 -291.5 22t-203 64.5t-128.5 113.5t-66.5 159.5 t-19.5 211.5zM481 551q0 -98 21.5 -161t70 -97t111 -47t158.5 -13q97 0 159 12.5t109.5 47t68.5 97.5t21 161v371q0 98 -21 160t-68.5 95t-109 44.5t-159.5 11.5q-77 0 -130.5 -7t-100 -26.5t-73.5 -54t-42 -90t-15 -133.5v-371zM618 1778q3 21 21 51q16 27 63 10 q174 -64 396 -72q57 -3 57 -59q0 -35 -14 -76q-24 -68 -49 -88.5t-62 -5.5q-211 64 -387 188q-25 25 -25 52z" />
<glyph unicode="&#xd3;" d="M133 551v371q0 155 31 256t110.5 172.5t217.5 103t350 31.5q170 0 290.5 -21.5t201.5 -62.5t128 -111t66.5 -157.5t19.5 -210.5v-371q0 -123 -19.5 -211.5t-66.5 -159.5t-127.5 -113.5t-202 -64.5t-290.5 -22q-170 0 -291.5 22t-203 64.5t-128.5 113.5t-66.5 159.5 t-19.5 211.5zM481 551q0 -98 21.5 -161t70 -97t111 -47t158.5 -13q97 0 159 12.5t109.5 47t68.5 97.5t21 161v371q0 98 -21 160t-68.5 95t-109 44.5t-159.5 11.5q-77 0 -130.5 -7t-100 -26.5t-73.5 -54t-42 -90t-15 -133.5v-371zM582 1702q0 51 57 65q232 52 375 93 q57 18 67 -11l21 -51q8 -19 -29 -51q-171 -125 -366 -188q-37 -12 -62 4t-49 69q-14 41 -14 70z" />
<glyph unicode="&#xd4;" d="M133 551v371q0 155 31 256t110.5 172.5t217.5 103t350 31.5q170 0 290.5 -21.5t201.5 -62.5t128 -111t66.5 -157.5t19.5 -210.5v-371q0 -123 -19.5 -211.5t-66.5 -159.5t-127.5 -113.5t-202 -64.5t-290.5 -22q-170 0 -291.5 22t-203 64.5t-128.5 113.5t-66.5 159.5 t-19.5 211.5zM481 551q0 -98 21.5 -161t70 -97t111 -47t158.5 -13q97 0 159 12.5t109.5 47t68.5 97.5t21 161v371q0 98 -21 160t-68.5 95t-109 44.5t-159.5 11.5q-77 0 -130.5 -7t-100 -26.5t-73.5 -54t-42 -90t-15 -133.5v-371zM498 1569q-23 33 12 59l305 197q20 8 31 8 t31 -8l305 -197q35 -26 12 -59q-15 -21 -33.5 -25t-50.5 6l-264 64l-264 -64q-32 -11 -50.5 -7t-33.5 26z" />
<glyph unicode="&#xd5;" d="M133 551v371q0 155 31 256t110.5 172.5t217.5 103t350 31.5q170 0 290.5 -21.5t201.5 -62.5t128 -111t66.5 -157.5t19.5 -210.5v-371q0 -123 -19.5 -211.5t-66.5 -159.5t-127.5 -113.5t-202 -64.5t-290.5 -22q-170 0 -291.5 22t-203 64.5t-128.5 113.5t-66.5 159.5 t-19.5 211.5zM481 551q0 -98 21.5 -161t70 -97t111 -47t158.5 -13q97 0 159 12.5t109.5 47t68.5 97.5t21 161v371q0 98 -21 160t-68.5 95t-109 44.5t-159.5 11.5q-77 0 -130.5 -7t-100 -26.5t-73.5 -54t-42 -90t-15 -133.5v-371zM547 1696q-17 18 6 41q50 55 92 78.5 t94 23.5q37 0 100.5 -27.5t100.5 -27.5q40 0 70 35q28 28 45 8l82 -125q16 -20 -2 -35q-54 -58 -96.5 -82t-96.5 -24q-38 0 -103 27.5t-100 27.5q-39 0 -73 -41q-23 -20 -41 -2z" />
<glyph unicode="&#xd6;" d="M133 551v371q0 155 31 256t110.5 172.5t217.5 103t350 31.5q170 0 290.5 -21.5t201.5 -62.5t128 -111t66.5 -157.5t19.5 -210.5v-371q0 -123 -19.5 -211.5t-66.5 -159.5t-127.5 -113.5t-202 -64.5t-290.5 -22q-170 0 -291.5 22t-203 64.5t-128.5 113.5t-66.5 159.5 t-19.5 211.5zM481 551q0 -98 21.5 -161t70 -97t111 -47t158.5 -13q97 0 159 12.5t109.5 47t68.5 97.5t21 161v371q0 98 -21 160t-68.5 95t-109 44.5t-159.5 11.5q-77 0 -130.5 -7t-100 -26.5t-73.5 -54t-42 -90t-15 -133.5v-371zM522 1640v99q0 27 13 44.5t37.5 24.5t43.5 9 t46 2q64 0 84 -23t20 -72v-100q0 -21 -8 -35.5t-18.5 -22t-31 -11.5t-36 -4.5t-43.5 -0.5q-64 0 -85.5 22t-21.5 68zM932 1640v99q0 27 13 44.5t37 24.5t43 9t46 2q64 0 84.5 -23t20.5 -72v-100q0 -21 -8 -36t-18.5 -22t-32 -11t-36 -4.5t-43.5 -0.5q-64 0 -85 22t-21 68z " />
<glyph unicode="&#xd7;" horiz-adv-x="921" d="M110 781.5q0 12.5 9 21.5l102 102q23 23 45 0l199 -198l201 202q9 9 21.5 9t21.5 -9l102 -104q23 -20 0 -43l-201 -201l199 -199q9 -9 9 -21.5t-9 -21.5l-102 -102q-23 -23 -45 0l-197 197l-195 -193q-23 -23 -43 0l-104 103q-9 9 -9 21.5t9 21.5l194 194l-198 199 q-9 9 -9 21.5z" />
<glyph unicode="&#xd8;" d="M133 551v371q0 155 31 256t110.5 172.5t217.5 103t350 31.5q125 0 227 -12l66 131q6 15 25.5 19t39.5 -5l35 -14q21 -9 31 -26t4 -34l-49 -100q183 -51 255 -174.5t72 -347.5v-371q0 -123 -19.5 -211.5t-66.5 -159.5t-127.5 -113.5t-202 -64.5t-290.5 -22q-201 0 -336 30 l-62 -125q-7 -15 -26 -19t-39 5l-37 14q-20 8 -30 25.5t-3 32.5l58 114q-129 62 -181.5 181.5t-52.5 312.5zM481 551q0 -121 35 -193l432 871q-66 4 -106 4q-77 0 -130.5 -7t-100 -26.5t-73.5 -54t-42 -90t-15 -133.5v-371zM631 260q74 -27 211 -27q97 0 159 12.5t109.5 47 t68.5 97.5t21 161v371q0 205 -108 266z" />
<glyph unicode="&#xd9;" horiz-adv-x="1568" d="M51 1294v160q0 7 5.5 14t15.5 7h411q10 0 15.5 -7t5.5 -14v-975q0 -146 68.5 -212t199.5 -66q130 0 252 45v968q0 26 -10 36t-43 14l-49 6q-21 3 -21 24v160q0 21 21 21h532q21 0 21 -21v-156q0 -17 -3.5 -21.5t-17.5 -6.5l-49 -6q-33 -4 -43 -14t-10 -36v-954 q0 -25 9 -35t38 -14l59 -6q19 -3 19 -25v-160q0 -7 -5.5 -13.5t-15.5 -6.5h-412q-10 0 -15 6.5t-5 13.5v17q-110 -55 -322 -55q-270 0 -398 113t-128 382v737q0 25 -9 35.5t-38 14.5l-59 6q-19 3 -19 24zM500 1778q3 23 20 51q16 27 64 10q174 -64 395 -72q57 -3 57 -59 q0 -35 -14 -76q-24 -68 -49 -88.5t-62 -5.5q-211 64 -387 188q-24 24 -24 52z" />
<glyph unicode="&#xda;" horiz-adv-x="1568" d="M51 1294v160q0 7 5.5 14t15.5 7h411q10 0 15.5 -7t5.5 -14v-975q0 -146 68.5 -212t199.5 -66q130 0 252 45v968q0 26 -10 36t-43 14l-49 6q-21 3 -21 24v160q0 21 21 21h532q21 0 21 -21v-156q0 -17 -3.5 -21.5t-17.5 -6.5l-49 -6q-33 -4 -43 -14t-10 -36v-954 q0 -25 9 -35t38 -14l59 -6q19 -3 19 -25v-160q0 -7 -5.5 -13.5t-15.5 -6.5h-412q-10 0 -15 6.5t-5 13.5v17q-110 -55 -322 -55q-270 0 -398 113t-128 382v737q0 25 -9 35.5t-38 14.5l-59 6q-19 3 -19 24zM463 1702q0 51 57 65q232 52 375 93q58 19 68 -11l20 -51 q8 -19 -29 -51q-171 -125 -366 -188q-37 -12 -62 4t-49 69q-14 41 -14 70z" />
<glyph unicode="&#xdb;" horiz-adv-x="1568" d="M51 1294v160q0 7 5.5 14t15.5 7h411q10 0 15.5 -7t5.5 -14v-975q0 -146 68.5 -212t199.5 -66q130 0 252 45v968q0 26 -10 36t-43 14l-49 6q-21 3 -21 24v160q0 21 21 21h532q21 0 21 -21v-156q0 -17 -3.5 -21.5t-17.5 -6.5l-49 -6q-33 -4 -43 -14t-10 -36v-954 q0 -25 9 -35t38 -14l59 -6q19 -3 19 -25v-160q0 -7 -5.5 -13.5t-15.5 -6.5h-412q-10 0 -15 6.5t-5 13.5v17q-110 -55 -322 -55q-270 0 -398 113t-128 382v737q0 25 -9 35.5t-38 14.5l-59 6q-19 3 -19 24zM379 1569q-23 33 12 59l305 197q20 8 31 8t31 -8l305 -197 q35 -26 12 -59q-15 -21 -33.5 -25t-50.5 6l-264 64l-264 -64q-32 -11 -50.5 -7t-33.5 26z" />
<glyph unicode="&#xdc;" horiz-adv-x="1568" d="M51 1294v160q0 7 5.5 14t15.5 7h411q10 0 15.5 -7t5.5 -14v-975q0 -146 68.5 -212t199.5 -66q130 0 252 45v968q0 26 -10 36t-43 14l-49 6q-21 3 -21 24v160q0 21 21 21h532q21 0 21 -21v-156q0 -17 -3.5 -21.5t-17.5 -6.5l-49 -6q-33 -4 -43 -14t-10 -36v-954 q0 -25 9 -35t38 -14l59 -6q19 -3 19 -25v-160q0 -7 -5.5 -13.5t-15.5 -6.5h-412q-10 0 -15 6.5t-5 13.5v17q-110 -55 -322 -55q-270 0 -398 113t-128 382v737q0 25 -9 35.5t-38 14.5l-59 6q-19 3 -19 24zM403 1640v99q0 27 13 44.5t37.5 24.5t43.5 9t46 2q64 0 84 -23 t20 -72v-100q0 -21 -8 -35.5t-18.5 -22t-31 -11.5t-36 -4.5t-43.5 -0.5q-64 0 -85.5 22t-21.5 68zM813 1640v99q0 27 13 44.5t37 24.5t43 9t46 2q64 0 84.5 -23t20.5 -72v-100q0 -21 -8 -36t-18 -22t-31.5 -11t-36 -4.5t-43.5 -0.5q-64 0 -85.5 22t-21.5 68z" />
<glyph unicode="&#xdd;" horiz-adv-x="1488" d="M41 1298v148q0 29 29 29h563q24 0 24 -25v-143q0 -27 -20 -29l-62 -6q-29 -3 -33 -13.5t15 -41.5l225 -396l246 396q18 31 14 42t-32 13l-49 4q-10 1 -14.5 3t-8.5 9t-4 21v141q0 25 24 25h490q20 0 20 -25v-156q0 -21 -20 -24l-47 -8q-36 -4 -48 -14.5t-42 -57.5 l-391 -606v-320q0 -25 10.5 -35t46.5 -14l82 -10q22 -3 28.5 -8.5t6.5 -26.5v-150q0 -20 -25 -20h-641q-20 0 -20 20v160q0 22 20 25l109 10q35 3 46 13t11 36v279l-387 643q-27 46 -47.5 59.5t-55.5 18.5l-45 6q-11 2 -14.5 7.5t-3.5 20.5zM535 1704q0 51 57 65 q232 52 375 93q57 18 67 -11l21 -51q8 -19 -29 -51q-170 -124 -367 -188q-37 -12 -61 3.5t-49 69.5q-14 41 -14 70z" />
<glyph unicode="&#xde;" horiz-adv-x="1392" d="M92 20v162q0 20 19 23l51 6q33 4 43 14t10 35v954q0 26 -10 36t-43 14l-49 6q-21 3 -21 24v160q0 21 21 21h532q21 0 21 -21v-156q0 -17 -3.5 -21.5t-17.5 -6.5l-49 -6q-33 -4 -43 -14t-10 -36v-2h184q307 0 447.5 -92.5t140.5 -312.5v-131q0 -220 -145.5 -319 t-442.5 -99h-184q0 -24 10 -34t43 -13l49 -4q13 -1 17 -6.5t4 -18.5v-159q0 -23 -23 -23h-528q-23 0 -23 20zM543 483h151q157 0 221 53.5t64 168.5v65q0 114 -63.5 165.5t-221.5 51.5h-151v-504z" />
<glyph unicode="&#xdf;" horiz-adv-x="1495" d="M61 25v145q0 26 23 29l35 6q61 9 61 82v112h2v412h-86q-20 0 -20 27v159q0 27 14 27h92v166q0 74 4 114.5t21.5 91.5t55 77t102 52t166 36t243.5 10q101 0 179 -5.5t135 -20t97 -28.5t65.5 -43.5t40 -52t21 -66.5t8 -74t1.5 -87v-39q0 -100 -18.5 -161.5t-63 -93.5 t-100.5 -42t-150 -10q-23 0 -34 -19t-11 -73q0 -27 1 -40.5t7 -29.5t19 -25t35 -16l276 -86q39 -13 65 -36.5t38.5 -59t17 -71t4.5 -85.5q0 -96 -25 -160.5t-76 -100.5t-117.5 -51t-160.5 -15q-159 0 -272 30q-14 4 -19.5 6t-9.5 9.5t-4 21.5v158q0 41 37 37q6 -1 36.5 -11 t70 -18t79.5 -8q98 0 131 14t33 60q0 40 -14 62t-47 32l-258 82q-69 22 -103.5 84t-34.5 198q0 101 13.5 162t47.5 93t77 42t116 10q74 0 118 23t44 88v41q0 24 -1 37t-6.5 33.5t-16.5 32t-32 26t-52 22t-78.5 12.5t-108.5 5q-77 0 -131 -10.5t-81.5 -24.5t-42 -40t-17 -45 t-2.5 -52v-862h-2v-56q0 -37 13.5 -50.5t47.5 -18.5l57 -6q21 -2 21 -27v-147q0 -10 -8 -17.5t-17 -7.5h-526q-25 0 -25 25z" />
<glyph unicode="&#xe0;" horiz-adv-x="1239" d="M92 289v30q0 59 7.5 100t32.5 83.5t70 68t123 42t187 16.5q137 0 233 -15v93q0 75 -33 104t-134 29q-115 0 -170 -9l-39 -143q-5 -17 -10 -23t-17 -6h-147q-14 0 -20 6t-7 23l-14 277q-2 31 1.5 41t18.5 14q32 9 159 16.5t245 7.5q100 0 167.5 -6.5t132.5 -27 t102.5 -57.5t60 -99.5t22.5 -151.5v-432q0 -41 11.5 -57t35.5 -16q26 0 51 4q10 0 14.5 -1t8.5 -7.5t4 -20.5v-143q0 -22 -23 -31q-56 -18 -188 -18q-133 0 -186 69q-142 -69 -345 -69q-76 0 -134.5 11t-96.5 33.5t-63 49t-38 64t-17.5 72t-4.5 79.5zM354 1395q3 21 21 51 q16 27 63 10q174 -64 396 -72q57 -3 57 -59q0 -35 -14 -76q-24 -68 -49 -88.5t-62 -5.5q-211 64 -387 188q-25 25 -25 52zM412 287q0 -56 31.5 -76.5t95.5 -20.5q84 0 206 46v178q-148 4 -188 4q-78 0 -111.5 -22t-33.5 -74v-35z" />
<glyph unicode="&#xe1;" horiz-adv-x="1239" d="M92 289v30q0 59 7.5 100t32.5 83.5t70 68t123 42t187 16.5q137 0 233 -15v93q0 75 -33 104t-134 29q-115 0 -170 -9l-39 -143q-5 -17 -10 -23t-17 -6h-147q-14 0 -20 6t-7 23l-14 277q-2 31 1.5 41t18.5 14q32 9 159 16.5t245 7.5q100 0 167.5 -6.5t132.5 -27 t102.5 -57.5t60 -99.5t22.5 -151.5v-432q0 -41 11.5 -57t35.5 -16q26 0 51 4q10 0 14.5 -1t8.5 -7.5t4 -20.5v-143q0 -22 -23 -31q-56 -18 -188 -18q-133 0 -186 69q-142 -69 -345 -69q-76 0 -134.5 11t-96.5 33.5t-63 49t-38 64t-17.5 72t-4.5 79.5zM317 1319q0 51 58 65 q232 52 375 93q57 18 67 -11l21 -51q8 -19 -29 -51q-170 -124 -367 -188q-37 -12 -61 3.5t-49 69.5q-15 43 -15 70zM412 287q0 -56 31.5 -76.5t95.5 -20.5q84 0 206 46v178q-148 4 -188 4q-78 0 -111.5 -22t-33.5 -74v-35z" />
<glyph unicode="&#xe2;" horiz-adv-x="1239" d="M92 289v30q0 59 7.5 100t32.5 83.5t70 68t123 42t187 16.5q137 0 233 -15v93q0 75 -33 104t-134 29q-115 0 -170 -9l-39 -143q-5 -17 -10 -23t-17 -6h-147q-14 0 -20 6t-7 23l-14 277q-2 31 1.5 41t18.5 14q32 9 159 16.5t245 7.5q100 0 167.5 -6.5t132.5 -27 t102.5 -57.5t60 -99.5t22.5 -151.5v-432q0 -41 11.5 -57t35.5 -16q26 0 51 4q10 0 14.5 -1t8.5 -7.5t4 -20.5v-143q0 -22 -23 -31q-56 -18 -188 -18q-133 0 -186 69q-142 -69 -345 -69q-76 0 -134.5 11t-96.5 33.5t-63 49t-38 64t-17.5 72t-4.5 79.5zM233 1186q-23 33 13 59 l305 197q20 8 31 8q10 0 30 -8l306 -197q35 -26 12 -59q-15 -21 -33.5 -25t-50.5 6l-264 64l-265 -64q-32 -11 -50.5 -7t-33.5 26zM412 287q0 -56 31.5 -76.5t95.5 -20.5q84 0 206 46v178q-148 4 -188 4q-78 0 -111.5 -22t-33.5 -74v-35z" />
<glyph unicode="&#xe3;" horiz-adv-x="1239" d="M92 289v30q0 59 7.5 100t32.5 83.5t70 68t123 42t187 16.5q137 0 233 -15v93q0 75 -33 104t-134 29q-115 0 -170 -9l-39 -143q-5 -17 -10 -23t-17 -6h-147q-14 0 -20 6t-7 23l-14 277q-2 31 1.5 41t18.5 14q32 9 159 16.5t245 7.5q100 0 167.5 -6.5t132.5 -27 t102.5 -57.5t60 -99.5t22.5 -151.5v-432q0 -41 11.5 -57t35.5 -16q26 0 51 4q10 0 14.5 -1t8.5 -7.5t4 -20.5v-143q0 -22 -23 -31q-56 -18 -188 -18q-133 0 -186 69q-142 -69 -345 -69q-76 0 -134.5 11t-96.5 33.5t-63 49t-38 64t-17.5 72t-4.5 79.5zM283 1313q-17 17 6 41 q50 55 92 78.5t94 23.5q37 0 100.5 -27.5t100.5 -27.5q39 0 69 35q28 28 46 8l81 -125q16 -20 -2 -35q-54 -58 -96 -82t-96 -24q-38 0 -103 27.5t-100 27.5q-40 0 -74 -41q-23 -20 -41 -2zM412 287q0 -56 31.5 -76.5t95.5 -20.5q84 0 206 46v178q-148 4 -188 4 q-78 0 -111.5 -22t-33.5 -74v-35z" />
<glyph unicode="&#xe4;" horiz-adv-x="1239" d="M92 289v30q0 59 7.5 100t32.5 83.5t70 68t123 42t187 16.5q137 0 233 -15v93q0 75 -33 104t-134 29q-115 0 -170 -9l-39 -143q-5 -17 -10 -23t-17 -6h-147q-14 0 -20 6t-7 23l-14 277q-2 31 1.5 41t18.5 14q32 9 159 16.5t245 7.5q100 0 167.5 -6.5t132.5 -27 t102.5 -57.5t60 -99.5t22.5 -151.5v-432q0 -41 11.5 -57t35.5 -16q26 0 51 4q10 0 14.5 -1t8.5 -7.5t4 -20.5v-143q0 -22 -23 -31q-56 -18 -188 -18q-133 0 -186 69q-142 -69 -345 -69q-76 0 -134.5 11t-96.5 33.5t-63 49t-38 64t-17.5 72t-4.5 79.5zM258 1257v99 q0 27 13 44.5t37 24.5t43 9t46 2q64 0 84.5 -23t20.5 -72v-100q0 -21 -8 -35.5t-18.5 -22t-31 -11.5t-36 -4.5t-43.5 -0.5q-64 0 -85.5 22t-21.5 68zM412 287q0 -56 31.5 -76.5t95.5 -20.5q84 0 206 46v178q-148 4 -188 4q-78 0 -111.5 -22t-33.5 -74v-35zM668 1257v99 q0 27 13 44.5t37 24.5t43 9t46 2q64 0 84 -23t20 -72v-100q0 -21 -8 -36t-18 -22t-31.5 -11t-36 -4.5t-43.5 -0.5q-64 0 -85 22t-21 68z" />
<glyph unicode="&#xe5;" horiz-adv-x="1239" d="M92 289v30q0 59 7.5 100t32.5 83.5t70 68t123 42t187 16.5q137 0 233 -15v93q0 75 -33 104t-134 29q-115 0 -170 -9l-39 -143q-5 -17 -10 -23t-17 -6h-147q-14 0 -20 6t-7 23l-14 277q-2 31 1.5 41t18.5 14q32 9 159 16.5t245 7.5q100 0 167.5 -6.5t132.5 -27 t102.5 -57.5t60 -99.5t22.5 -151.5v-432q0 -41 11.5 -57t35.5 -16q26 0 51 4q10 0 14.5 -1t8.5 -7.5t4 -20.5v-143q0 -22 -23 -31q-56 -18 -188 -18q-133 0 -186 69q-142 -69 -345 -69q-76 0 -134.5 11t-96.5 33.5t-63 49t-38 64t-17.5 72t-4.5 79.5zM358 1339v72 q0 90 59 132t181 42q124 0 183 -42t59 -132v-72q0 -89 -59.5 -131.5t-182.5 -42.5q-122 0 -181 42t-59 132zM412 287q0 -56 31.5 -76.5t95.5 -20.5q84 0 206 46v178q-148 4 -188 4q-78 0 -111.5 -22t-33.5 -74v-35zM528 1362q0 -28 18 -37.5t52 -9.5t52 9.5t18 37.5v27 q0 28 -18 37.5t-52 9.5t-52 -9.5t-18 -37.5v-27z" />
<glyph unicode="&#xe6;" horiz-adv-x="1886" d="M92 289v30q0 59 7.5 100t32.5 83.5t70 68t123 42t187 16.5q187 0 242 -13v91q0 75 -33.5 104t-134.5 29q-114 0 -170 -9l-39 -143q-5 -17 -10 -23t-17 -6h-147q-14 0 -20 6t-7 23l-14 277q-2 31 1.5 41t18.5 14q32 9 159.5 16.5t244.5 7.5q247 0 350 -55q110 55 344 55 q94 0 162 -8t127 -29t95 -57t56.5 -93.5t20.5 -137.5q0 -99 -29.5 -162.5t-95 -98t-150.5 -47t-217 -12.5h-178q0 -43 4 -69t19 -52t43.5 -39.5t77 -21.5t120.5 -8q49 0 98.5 3t97 8.5t76 9.5t70.5 10.5t47 7.5q25 3 32 -3.5t7 -31.5v-150q0 -28 -7.5 -36t-31.5 -11 q-221 -36 -467 -36q-154 0 -250.5 22.5t-150.5 73.5q-49 -36 -164 -66t-246 -30q-76 0 -134.5 11t-96.5 33.5t-63 49t-38 64t-17.5 72t-4.5 79.5zM410 287q0 -57 31 -75.5t104 -18.5q51 0 98.5 10t126.5 43q-12 70 -12 166v2q-80 2 -172 2t-134 -21.5t-42 -72.5v-35z M1071 600h166q119 0 156 22.5t37 86.5q0 66 -35.5 96.5t-137.5 30.5q-108 0 -147 -42t-39 -155v-39z" />
<glyph unicode="&#xe7;" horiz-adv-x="1142" d="M102 412v229q0 83 13 142.5t47 111t92.5 83t150.5 49t220 17.5q264 0 366 -24q11 -3 16 -8t6 -9.5t1 -13.5l-17 -323q0 -14 -8 -21.5t-20 -7.5h-135q-21 0 -27 29l-39 149q-52 8 -158 8q-101 0 -147.5 -50.5t-46.5 -129.5v-233q0 -118 51 -159.5t190 -41.5q173 0 347 31 q36 6 36 -31v-160q0 -26 -28 -33q-92 -22 -346 -34l-17 -43q86 -13 126 -50.5t40 -105.5q0 -184 -252 -184q-144 0 -223 32q-5 2 -8 5t-4 6t0 4l41 102q6 14 9.5 15.5t16.5 -1.5q69 -12 123 -12q20 0 30 0.5t22.5 2.5t18 7t5.5 13q0 19 -24.5 26t-99.5 15q-21 3 -32 4 q-10 1 -13.5 6.5t-2.5 10.5l2 5l55 144q-92 7 -158 29.5t-108.5 56.5t-67 86.5t-34 113t-9.5 142.5z" />
<glyph unicode="&#xe8;" horiz-adv-x="1230" d="M102 412v219q0 126 34 209t105.5 127t161 60.5t222.5 16.5q118 0 197.5 -13t142 -48t91.5 -100t29 -164q0 -80 -20.5 -136.5t-57 -92t-99.5 -56t-136 -28t-178 -7.5h-178q0 -43 4 -69t19 -52t43.5 -39.5t77 -21.5t120.5 -8q49 0 98.5 3t97 8.5t76 9.5t70.5 10.5t47 7.5 q25 3 32 -3.5t7 -31.5v-150q0 -28 -7.5 -36t-31.5 -11q-221 -36 -467 -36q-151 0 -246 21t-152.5 73.5t-79.5 131.5t-22 206zM401 1395q3 21 21 51q16 27 63 10q174 -64 396 -72q57 -3 57 -59q0 -35 -14 -76q-24 -68 -49 -88.5t-62 -5.5q-211 64 -387 188q-25 25 -25 52z M416 600h166q82 0 123 11t55 32.5t14 65.5q0 66 -35 96.5t-137 30.5q-108 0 -147 -42t-39 -155v-39z" />
<glyph unicode="&#xe9;" horiz-adv-x="1230" d="M102 412v219q0 126 34 209t105.5 127t161 60.5t222.5 16.5q118 0 197.5 -13t142 -48t91.5 -100t29 -164q0 -80 -20.5 -136.5t-57 -92t-99.5 -56t-136 -28t-178 -7.5h-178q0 -43 4 -69t19 -52t43.5 -39.5t77 -21.5t120.5 -8q49 0 98.5 3t97 8.5t76 9.5t70.5 10.5t47 7.5 q25 3 32 -3.5t7 -31.5v-150q0 -28 -7.5 -36t-31.5 -11q-221 -36 -467 -36q-151 0 -246 21t-152.5 73.5t-79.5 131.5t-22 206zM365 1319q0 51 57 65q232 52 375 93q57 18 67 -11l21 -51q8 -19 -29 -51q-170 -124 -367 -188q-37 -12 -61 3.5t-49 69.5q-14 41 -14 70zM416 600 h166q82 0 123 11t55 32.5t14 65.5q0 66 -35 96.5t-137 30.5q-108 0 -147 -42t-39 -155v-39z" />
<glyph unicode="&#xea;" horiz-adv-x="1230" d="M102 412v219q0 126 34 209t105.5 127t161 60.5t222.5 16.5q118 0 197.5 -13t142 -48t91.5 -100t29 -164q0 -80 -20.5 -136.5t-57 -92t-99.5 -56t-136 -28t-178 -7.5h-178q0 -43 4 -69t19 -52t43.5 -39.5t77 -21.5t120.5 -8q49 0 98.5 3t97 8.5t76 9.5t70.5 10.5t47 7.5 q25 3 32 -3.5t7 -31.5v-150q0 -28 -7.5 -36t-31.5 -11q-221 -36 -467 -36q-151 0 -246 21t-152.5 73.5t-79.5 131.5t-22 206zM281 1186q-23 33 12 59l305 197q20 8 31 8q10 0 30 -8l306 -197q35 -26 12 -59q-15 -21 -33.5 -25t-50.5 6l-264 64l-264 -64q-32 -11 -50.5 -7 t-33.5 26zM416 600h166q82 0 123 11t55 32.5t14 65.5q0 66 -35 96.5t-137 30.5q-108 0 -147 -42t-39 -155v-39z" />
<glyph unicode="&#xeb;" horiz-adv-x="1230" d="M102 412v219q0 126 34 209t105.5 127t161 60.5t222.5 16.5q118 0 197.5 -13t142 -48t91.5 -100t29 -164q0 -80 -20.5 -136.5t-57 -92t-99.5 -56t-136 -28t-178 -7.5h-178q0 -43 4 -69t19 -52t43.5 -39.5t77 -21.5t120.5 -8q49 0 98.5 3t97 8.5t76 9.5t70.5 10.5t47 7.5 q25 3 32 -3.5t7 -31.5v-150q0 -28 -7.5 -36t-31.5 -11q-221 -36 -467 -36q-151 0 -246 21t-152.5 73.5t-79.5 131.5t-22 206zM305 1257v99q0 27 13 44.5t37 24.5t43 9t46 2q64 0 84.5 -23t20.5 -72v-100q0 -21 -8 -35.5t-18.5 -22t-31 -11.5t-36 -4.5t-43.5 -0.5 q-64 0 -85.5 22t-21.5 68zM416 600h166q82 0 123 11t55 32.5t14 65.5q0 66 -35 96.5t-137 30.5q-108 0 -147 -42t-39 -155v-39zM715 1257v99q0 27 13 44.5t37 24.5t43 9t46 2q64 0 84 -23t20 -72v-100q0 -21 -8 -36t-18 -22t-31.5 -11t-36 -4.5t-43.5 -0.5q-64 0 -85 22 t-21 68z" />
<glyph unicode="&#xec;" horiz-adv-x="665" d="M51 846v115q0 18 6 25.5t27 10.5l203 31q94 16 119 16q49 0 66 -22t17 -68v-684q0 -41 11.5 -57t36.5 -16q26 0 51 4q10 0 14.5 -1t8 -7.5t3.5 -20.5v-143q0 -23 -22 -31q-56 -18 -189 -18q-72 0 -119.5 19t-71 55.5t-32 76.5t-8.5 96v498q0 49 -10 60.5t-51 21.5l-37 8 q-13 3 -18 9.5t-5 21.5zM111 1395q3 23 20 51q16 27 64 10q174 -64 395 -72q57 -3 57 -59q0 -35 -14 -76q-24 -68 -49 -88.5t-62 -5.5q-211 64 -387 188q-24 24 -24 52z" />
<glyph unicode="&#xed;" horiz-adv-x="665" d="M51 846v115q0 18 6 25.5t27 10.5l203 31q94 16 119 16q49 0 66 -22t17 -68v-684q0 -41 11.5 -57t36.5 -16q26 0 51 4q10 0 14.5 -1t8 -7.5t3.5 -20.5v-143q0 -23 -22 -31q-56 -18 -189 -18q-72 0 -119.5 19t-71 55.5t-32 76.5t-8.5 96v498q0 49 -10 60.5t-51 21.5l-37 8 q-13 3 -18 9.5t-5 21.5zM74 1319q0 51 57 65q232 52 375 93q57 18 67 -11l21 -51q8 -19 -29 -51q-171 -125 -366 -188q-37 -12 -62 4t-49 69q-14 41 -14 70z" />
<glyph unicode="&#xee;" horiz-adv-x="665" d="M-10 1186q-23 33 12 59l305 197q20 8 31 8t31 -8l305 -197q35 -26 12 -59q-15 -21 -33.5 -25t-50.5 6l-264 64l-264 -64q-32 -11 -50.5 -7t-33.5 26zM51 846v115q0 18 6 25.5t27 10.5l203 31q94 16 119 16q49 0 66 -22t17 -68v-684q0 -41 11.5 -57t36.5 -16q26 0 51 4 q10 0 14.5 -1t8 -7.5t3.5 -20.5v-143q0 -23 -22 -31q-56 -18 -189 -18q-72 0 -119.5 19t-71 55.5t-32 76.5t-8.5 96v498q0 49 -10 60.5t-51 21.5l-37 8q-13 3 -18 9.5t-5 21.5z" />
<glyph unicode="&#xef;" horiz-adv-x="665" d="M14 1257v99q0 27 13 44.5t37.5 24.5t43.5 9t46 2q64 0 84 -23t20 -72v-100q0 -21 -8 -35.5t-18.5 -22t-31 -11.5t-36 -4.5t-43.5 -0.5q-64 0 -85.5 22t-21.5 68zM51 846v115q0 18 6 25.5t27 10.5l203 31q94 16 119 16q49 0 66 -22t17 -68v-684q0 -41 11.5 -57t36.5 -16 q26 0 51 4q10 0 14.5 -1t8 -7.5t3.5 -20.5v-143q0 -23 -22 -31q-56 -18 -189 -18q-72 0 -119.5 19t-71 55.5t-32 76.5t-8.5 96v498q0 49 -10 60.5t-51 21.5l-37 8q-13 3 -18 9.5t-5 21.5zM424 1257v99q0 27 13 44.5t37 24.5t43 9t46 2q64 0 84.5 -23t20.5 -72v-100 q0 -21 -8 -36t-18.5 -22t-32 -11t-36 -4.5t-43.5 -0.5q-64 0 -85 22t-21 68z" />
<glyph unicode="&#xf0;" horiz-adv-x="1294" d="M102 391v242q0 111 18.5 184.5t64.5 126.5t125.5 76.5t199.5 23.5q138 0 272 -55q-12 41 -37 72l-73 92l-84 -68q-10 -8 -26 -6.5t-25 11.5l-52 67q-27 32 2 55l84 68l-67 82q-43 51 22 94l103 64q1 1 13.5 8.5t16.5 9.5t15 6t18 2.5t16 -6t17 -14.5l84 -107l84 66 q16 7 28 1.5t21 -16.5l53 -67q23 -27 -12 -53l-74 -58l78 -98q68 -86 99 -156.5t32 -163.5v-604q0 -41 11.5 -57t35.5 -16q27 0 52 4q10 0 14.5 -1t8 -7.5t3.5 -20.5v-143q0 -23 -22 -31q-56 -18 -189 -18q-136 0 -188 71q-49 -27 -139.5 -49t-194.5 -22q-120 0 -199.5 23.5 t-125.5 76.5t-64.5 126.5t-18.5 184.5zM424 389q0 -104 41.5 -144t144.5 -40q99 0 191 45v522q-85 47 -191 47q-55 0 -87 -6t-56 -26t-33.5 -56t-9.5 -96v-246z" />
<glyph unicode="&#xf1;" horiz-adv-x="1325" d="M61 846v115q0 18 6 25.5t27 10.5l203 31q94 16 119 16q49 0 66.5 -22t17.5 -68v-4q193 94 391 94q61 0 105 -11t83 -40t59.5 -87t20.5 -144v-492q0 -41 11.5 -57t35.5 -16q26 0 51 4q10 0 14.5 -1t8.5 -7.5t4 -20.5v-143q0 -23 -22 -31q-56 -18 -189 -18q-72 0 -119.5 19 t-71 55.5t-32 76.5t-8.5 96v457q0 69 -31 92t-82 23q-102 0 -229 -51v-482q0 -42 10 -53.5t51 -15.5l37 -7q20 -3 20 -26v-139q0 -25 -24 -25h-506q-25 0 -25 25v137q0 25 23 28l35 7q35 5 48 20.5t13 61.5v446q0 49 -10 60.5t-51 21.5l-37 8q-13 3 -18 9.5t-5 21.5z M379 1313q-17 17 6 41q50 55 92 78.5t94 23.5q37 0 100.5 -27.5t100.5 -27.5q40 0 70 35q28 28 45 8l82 -125q16 -20 -2 -35q-54 -58 -96.5 -82t-96.5 -24q-38 0 -103 27.5t-100 27.5q-39 0 -73 -41q-23 -20 -41 -2z" />
<glyph unicode="&#xf2;" horiz-adv-x="1253" d="M102 362v300q0 196 129 289t396 93t395.5 -93t128.5 -289v-300q0 -196 -128.5 -289t-395.5 -93t-396 93t-129 289zM401 1395q3 21 21 51q16 27 63 10q174 -64 396 -72q57 -3 57 -59q0 -35 -14 -76q-24 -68 -49 -88.5t-62 -5.5q-211 64 -387 188q-25 25 -25 52zM422 365 q0 -91 52 -122.5t153 -31.5t152.5 31.5t51.5 122.5v294q0 91 -51.5 122.5t-152.5 31.5t-153 -31.5t-52 -122.5v-294z" />
<glyph unicode="&#xf3;" horiz-adv-x="1253" d="M102 362v300q0 196 129 289t396 93t395.5 -93t128.5 -289v-300q0 -196 -128.5 -289t-395.5 -93t-396 93t-129 289zM365 1319q0 51 57 65q232 52 375 93q57 18 67 -11l21 -51q8 -19 -29 -51q-170 -124 -367 -188q-37 -12 -61 3.5t-49 69.5q-14 41 -14 70zM422 365 q0 -91 52 -122.5t153 -31.5t152.5 31.5t51.5 122.5v294q0 91 -51.5 122.5t-152.5 31.5t-153 -31.5t-52 -122.5v-294z" />
<glyph unicode="&#xf4;" horiz-adv-x="1253" d="M102 362v300q0 196 129 289t396 93t395.5 -93t128.5 -289v-300q0 -196 -128.5 -289t-395.5 -93t-396 93t-129 289zM281 1186q-23 33 12 59l305 197q20 8 31 8q10 0 30 -8l306 -197q35 -26 12 -59q-15 -21 -33.5 -25t-50.5 6l-264 64l-264 -64q-32 -11 -50.5 -7t-33.5 26z M422 365q0 -91 52 -122.5t153 -31.5t152.5 31.5t51.5 122.5v294q0 91 -51.5 122.5t-152.5 31.5t-153 -31.5t-52 -122.5v-294z" />
<glyph unicode="&#xf5;" horiz-adv-x="1253" d="M102 362v300q0 196 129 289t396 93t395.5 -93t128.5 -289v-300q0 -196 -128.5 -289t-395.5 -93t-396 93t-129 289zM330 1313q-18 17 6 41q50 55 92 78.5t94 23.5q37 0 100.5 -27.5t100.5 -27.5q40 0 70 35q28 28 45 8l82 -125q16 -20 -2 -35q-54 -58 -96.5 -82t-96.5 -24 q-37 0 -103 27.5t-100 27.5q-39 0 -73 -41q-23 -20 -41 -2zM422 365q0 -91 52 -122.5t153 -31.5t152.5 31.5t51.5 122.5v294q0 91 -51.5 122.5t-152.5 31.5t-153 -31.5t-52 -122.5v-294z" />
<glyph unicode="&#xf6;" horiz-adv-x="1253" d="M102 362v300q0 196 129 289t396 93t395.5 -93t128.5 -289v-300q0 -196 -128.5 -289t-395.5 -93t-396 93t-129 289zM305 1257v99q0 27 13 44.5t37 24.5t43 9t46 2q64 0 84.5 -23t20.5 -72v-100q0 -21 -8 -35.5t-18.5 -22t-31 -11.5t-36 -4.5t-43.5 -0.5q-64 0 -85.5 22 t-21.5 68zM422 365q0 -91 52 -122.5t153 -31.5t152.5 31.5t51.5 122.5v294q0 91 -51.5 122.5t-152.5 31.5t-153 -31.5t-52 -122.5v-294zM715 1257v99q0 27 13 44.5t37 24.5t43 9t46 2q64 0 84 -23t20 -72v-100q0 -21 -8 -36t-18 -22t-31.5 -11t-36 -4.5t-43.5 -0.5 q-64 0 -85 22t-21 68z" />
<glyph unicode="&#xf7;" horiz-adv-x="882" d="M27 418q0 -14 8.5 -22.5t21.5 -8.5h777q13 0 21.5 8.5t8.5 22.5v207q0 13 -8 21.5t-22 8.5h-777q-13 0 -21.5 -8.5t-8.5 -21.5v-207zM274 88v111q0 94 156 94t156 -94v-111q0 -59 -40 -81.5t-116 -22.5t-116 22.5t-40 81.5zM274 840v110q0 94 156 94t156 -94v-110 q0 -59 -40 -82t-116 -23t-116 23t-40 82z" />
<glyph unicode="&#xf8;" horiz-adv-x="1253" d="M102 362v300q0 196 129 289t396 93q36 0 102 -4l21 47q9 18 22.5 23.5t40.5 5.5h154q17 0 25 -14t1 -33l-35 -82q193 -88 193 -325v-300q0 -196 -128.5 -289t-395.5 -93q-35 0 -101 4l-14 -37q-10 -18 -24 -23.5t-39 -5.5h-154q-17 0 -25.5 14t-1.5 33l29 70 q-195 88 -195 327zM422 365q0 -25 2 -37l207 485h-4q-101 0 -153 -31.5t-52 -122.5v-294zM625 211h2q101 0 152.5 31.5t51.5 122.5v294q0 21 -2 29z" />
<glyph unicode="&#xf9;" horiz-adv-x="1339" d="M51 825v115q0 18 6 26t27 11l203 31q94 16 119 16q49 0 66 -22t17 -68v-594q0 -45 11 -73.5t33.5 -41t44.5 -16.5t57 -4q96 0 211 37v463q0 34 -6 49t-16 20t-40 12l-36 9q-14 3 -18.5 9t-4.5 21v115q0 18 6 26t27 11l203 31q94 16 118 16q49 0 66.5 -22t17.5 -68v-664 q0 -41 11.5 -57t35.5 -16q27 0 52 4q10 0 14.5 -1t8 -7.5t3.5 -20.5v-143q0 -23 -22 -31q-56 -18 -189 -18q-140 0 -194 77q-180 -77 -402 -77q-70 0 -121 11t-96 40t-68.5 87t-23.5 144v443q0 26 -1.5 39.5t-10.5 22t-17 11t-32 8.5l-37 9q-14 3 -18.5 9t-4.5 21zM442 1386 q3 22 21 52q16 27 63 10q174 -64 396 -72q57 -3 57 -59q0 -35 -14 -76q-24 -68 -49 -88.5t-62 -5.5q-211 64 -387 188q-25 25 -25 51z" />
<glyph unicode="&#xfa;" horiz-adv-x="1339" d="M51 825v115q0 18 6 26t27 11l203 31q94 16 119 16q49 0 66 -22t17 -68v-594q0 -45 11 -73.5t33.5 -41t44.5 -16.5t57 -4q96 0 211 37v463q0 34 -6 49t-16 20t-40 12l-36 9q-14 3 -18.5 9t-4.5 21v115q0 18 6 26t27 11l203 31q94 16 118 16q49 0 66.5 -22t17.5 -68v-664 q0 -41 11.5 -57t35.5 -16q27 0 52 4q10 0 14.5 -1t8 -7.5t3.5 -20.5v-143q0 -23 -22 -31q-56 -18 -189 -18q-140 0 -194 77q-180 -77 -402 -77q-70 0 -121 11t-96 40t-68.5 87t-23.5 144v443q0 26 -1.5 39.5t-10.5 22t-17 11t-32 8.5l-37 9q-14 3 -18.5 9t-4.5 21zM406 1311 q0 51 57 65q249 56 375 92q57 18 67 -10l21 -51q8 -19 -29 -51q-172 -126 -367 -189q-37 -12 -61 4t-49 70q-14 41 -14 70z" />
<glyph unicode="&#xfb;" horiz-adv-x="1339" d="M51 825v115q0 18 6 26t27 11l203 31q94 16 119 16q49 0 66 -22t17 -68v-612q2 -39 14 -64t34.5 -36t43.5 -14t54 -3q96 0 211 37v463q0 34 -6 49t-16 20t-40 12l-36 9q-14 3 -18.5 9t-4.5 21v115q0 18 6 26t27 11l203 31q94 16 118 16q49 0 66.5 -22t17.5 -68v-664 q0 -41 11.5 -57t35.5 -16q27 0 52 4q10 0 14.5 -1t8 -7.5t3.5 -20.5v-143q0 -23 -22 -31q-56 -18 -189 -18q-140 0 -194 77q-180 -77 -402 -77q-70 0 -121 11t-96 40t-68.5 87t-23.5 144v443q0 26 -1.5 39.5t-10.5 22t-17 11t-32 8.5l-37 9q-14 3 -18.5 9t-4.5 21zM322 1178 q-23 33 12 59l305 197q20 8 31 8q10 0 30 -8l306 -197q35 -26 12 -59q-15 -21 -33.5 -25t-50.5 6l-264 64l-264 -64q-32 -11 -50.5 -7t-33.5 26z" />
<glyph unicode="&#xfc;" horiz-adv-x="1339" d="M51 825v115q0 18 6 26t27 11l203 31q94 16 119 16q49 0 66 -22t17 -68v-594q0 -45 11 -73.5t33.5 -41t44.5 -16.5t57 -4q96 0 211 37v463q0 34 -6 49t-16 20t-40 12l-36 9q-14 3 -18.5 9t-4.5 21v115q0 18 6 26t27 11l203 31q94 16 118 16q49 0 66.5 -22t17.5 -68v-664 q0 -41 11.5 -57t35.5 -16q27 0 52 4q10 0 14.5 -1t8 -7.5t3.5 -20.5v-143q0 -23 -22 -31q-56 -18 -189 -18q-140 0 -194 77q-180 -77 -402 -77q-70 0 -121 11t-96 40t-68.5 87t-23.5 144v443q0 26 -1.5 39.5t-10.5 22t-17 11t-32 8.5l-37 9q-14 3 -18.5 9t-4.5 21zM346 1249 v99q0 27 13 44t37 24t43 9t46 2q64 0 84.5 -23t20.5 -71v-100q0 -21 -8 -35.5t-18.5 -22t-31 -11.5t-36 -4.5t-43.5 -0.5q-64 0 -85.5 22t-21.5 68zM756 1249v99q0 27 13 44t37 24t43 9t46 2q64 0 84 -22.5t20 -71.5v-100q0 -21 -8 -36t-18 -22t-31.5 -11t-36 -4.5 t-43.5 -0.5q-64 0 -85 22t-21 68z" />
<glyph unicode="&#xfd;" horiz-adv-x="1255" d="M49 838v166q0 20 19 20h471q19 0 24.5 -8.5t5.5 -32.5v-135q0 -25 -16 -25l-35 -2q-31 -2 -35 -10.5t11 -52.5l182 -508l190 508q17 38 9 50t-48 15l-22 2q-14 2 -14 25v133q0 24 5.5 32.5t24.5 8.5h383q19 0 19 -20v-162q0 -22 -17 -25l-45 -8q-26 -4 -43 -51l-297 -807 q-58 -161 -113 -241t-131 -113t-204 -33q-103 0 -146 12q-34 8 -34 35v129q0 9 8 16.5t20 7.5q9 0 52 -5t57 -5q99 0 146.5 47.5t105.5 198.5h-97q-40 0 -51 33l-280 743q-13 29 -29 31l-59 6q-17 3 -17 25zM418 1319q0 51 57 65q232 52 375 93q58 19 68 -11l20 -51 q8 -19 -29 -51q-171 -125 -366 -188q-37 -12 -62 4t-49 69q-14 41 -14 70z" />
<glyph unicode="&#xfe;" horiz-adv-x="1282" d="M51 1286v115q0 18 6 26t27 11l203 30q100 17 119 17q49 0 66 -22t17 -68v-400q129 49 283 49q120 0 199.5 -23.5t125.5 -76.5t64.5 -126.5t18.5 -184.5v-242q0 -111 -18.5 -184.5t-64.5 -126.5t-125.5 -76.5t-199.5 -23.5q-149 0 -283 59v-182q0 -60 62 -70l78 -12 q20 -3 20 -27v-139q0 -25 -24 -25h-547q-25 0 -25 25v137q0 26 23 29l35 6q61 9 61 82v1302q0 49 -10 60.5t-51 21.5l-37 8q-13 3 -18 9.5t-5 21.5zM489 246q77 -41 183 -41q55 0 87 6t56 26t33.5 56t9.5 96v246q0 104 -37 144t-129 40q-98 0 -203 -43v-530z" />
<glyph unicode="&#xff;" horiz-adv-x="1255" d="M49 838v166q0 20 19 20h471q19 0 24.5 -8.5t5.5 -32.5v-135q0 -25 -16 -25l-35 -2q-31 -2 -35 -10.5t11 -52.5l182 -508l190 508q17 38 9 50t-48 15l-22 2q-14 2 -14 25v133q0 24 5.5 32.5t24.5 8.5h383q19 0 19 -20v-162q0 -22 -17 -25l-45 -8q-26 -4 -43 -51l-297 -807 q-58 -161 -113 -241t-131 -113t-204 -33q-103 0 -146 12q-34 8 -34 35v129q0 9 8 16.5t20 7.5q9 0 52 -5t57 -5q99 0 146.5 47.5t105.5 198.5h-97q-40 0 -51 33l-280 743q-13 29 -29 31l-59 6q-17 3 -17 25zM358 1257v99q0 27 13 44.5t37.5 24.5t43.5 9t46 2q64 0 84 -23 t20 -72v-100q0 -21 -8 -35.5t-18.5 -22t-31 -11.5t-36 -4.5t-43.5 -0.5q-64 0 -85.5 22t-21.5 68zM768 1257v99q0 27 13 44.5t37 24.5t43 9t46 2q64 0 84.5 -23t20.5 -72v-100q0 -21 -8 -36t-18.5 -22t-32 -11t-36 -4.5t-43.5 -0.5q-64 0 -85 22t-21 68z" />
<glyph unicode="&#x152;" horiz-adv-x="2318" d="M133 559v371q0 155 31 256t110.5 172.5t217.5 103t350 31.5q158 0 278 -18h1075q11 0 16.5 -5.5t6 -10.5t0.5 -15l-16 -391q-1 -18 -9 -23.5t-24 -5.5h-146q-24 0 -30 29l-33 157q-5 22 -12.5 29t-32.5 8l-430 13q63 -120 63 -330v-74h424q20 0 27.5 -7.5t7.5 -27.5v-168 q0 -20 -8.5 -27.5t-32.5 -7.5h-418v-59q0 -222 -69 -346l440 14q19 0 26.5 6t14.5 21l59 172q10 29 31 29h172q14 0 20.5 -6t6.5 -23l-21 -395q0 -10 -0.5 -14.5t-5.5 -10t-16 -6.5h-1139q-99 -12 -225 -12q-170 0 -291.5 22t-203 64.5t-128.5 113.5t-66.5 159.5 t-19.5 211.5zM481 559q0 -79 15 -134.5t42.5 -91t73.5 -56t100 -28t130 -7.5q97 0 159 12.5t109.5 47t68.5 97t21 160.5v371q0 98 -21 160t-68.5 95t-109 44.5t-159.5 11.5q-77 0 -130.5 -7t-100 -26.5t-73.5 -54t-42 -90t-15 -133.5v-371z" />
<glyph unicode="&#x153;" horiz-adv-x="1968" d="M102 362v300q0 196 129 289t396 93q235 0 360 -71q114 71 375 71q94 0 162 -8t127 -29t95 -57t56.5 -93.5t20.5 -137.5q0 -99 -29.5 -162.5t-95 -98t-150.5 -47t-217 -12.5h-178q0 -43 4 -69t19 -52t43.5 -39.5t77 -21.5t120.5 -8q49 0 98.5 3t97 8.5t76 9.5t70.5 10.5 t47 7.5q25 3 32 -3.5t7 -31.5v-150q0 -28 -7.5 -36t-31.5 -11q-220 -36 -467 -36q-255 0 -360 65q-124 -65 -352 -65q-267 0 -396 93t-129 289zM422 365q0 -91 52 -122.5t153 -31.5t152.5 31.5t51.5 122.5v294q0 91 -51.5 122.5t-152.5 31.5t-153 -31.5t-52 -122.5v-294z M1153 600h166q82 0 123 11t55 32.5t14 65.5q0 66 -35 96.5t-137 30.5q-108 0 -147 -42t-39 -155v-39z" />
<glyph unicode="&#x178;" horiz-adv-x="1488" d="M41 1298v148q0 29 29 29h563q24 0 24 -25v-143q0 -27 -20 -29l-62 -6q-29 -3 -33 -13.5t15 -41.5l225 -396l246 396q18 31 14 42t-32 13l-49 4q-10 1 -14.5 3t-8.5 9t-4 21v141q0 25 24 25h490q20 0 20 -25v-156q0 -21 -20 -24l-47 -8q-36 -4 -48 -14.5t-42 -57.5 l-391 -606v-320q0 -25 10.5 -35t46.5 -14l82 -10q22 -3 28.5 -8.5t6.5 -26.5v-150q0 -20 -25 -20h-641q-20 0 -20 20v160q0 22 20 25l109 10q35 3 46 13t11 36v279l-387 643q-27 46 -47.5 59.5t-55.5 18.5l-45 6q-11 2 -14.5 7.5t-3.5 20.5zM434 1642v99q0 27 13 44.5 t37 24.5t43 9t46 2q64 0 84.5 -23t20.5 -72v-100q0 -21 -8 -35.5t-18.5 -22t-31 -11.5t-36 -4.5t-43.5 -0.5q-64 0 -85.5 22t-21.5 68zM844 1642v99q0 27 13 44.5t37 24.5t43 9t46 2q64 0 84 -23t20 -72v-100q0 -21 -8 -36t-18 -22t-31.5 -11t-36 -4.5t-43.5 -0.5 q-64 0 -85 22t-21 68z" />
<glyph unicode="&#x2c6;" horiz-adv-x="802" d="M53 1565q-23 33 13 59l305 197q20 8 30 8q11 0 31 -8l305 -197q36 -26 13 -59q-15 -21 -33.5 -25t-50.5 6l-265 64l-264 -64q-32 -11 -50.5 -7t-33.5 26z" />
<glyph unicode="&#x2dc;" horiz-adv-x="886" d="M106 1698q-17 17 7 41q50 55 92 78.5t94 23.5q37 0 100.5 -27.5t100.5 -27.5q39 0 69 35q28 28 45 8l82 -125q16 -20 -2 -35q-54 -58 -96 -82t-96 -24q-38 0 -103 27.5t-100 27.5q-40 0 -74 -41q-23 -20 -41 -2z" />
<glyph unicode="&#x2000;" horiz-adv-x="984" />
<glyph unicode="&#x2001;" horiz-adv-x="1968" />
<glyph unicode="&#x2002;" horiz-adv-x="984" />
<glyph unicode="&#x2003;" horiz-adv-x="1968" />
<glyph unicode="&#x2004;" horiz-adv-x="656" />
<glyph unicode="&#x2005;" horiz-adv-x="492" />
<glyph unicode="&#x2006;" horiz-adv-x="328" />
<glyph unicode="&#x2007;" horiz-adv-x="328" />
<glyph unicode="&#x2008;" horiz-adv-x="246" />
<glyph unicode="&#x2009;" horiz-adv-x="393" />
<glyph unicode="&#x200a;" horiz-adv-x="109" />
<glyph unicode="&#x2010;" horiz-adv-x="634" d="M45 502v155q0 25 7 32t26 7h491q19 0 26 -7t7 -30v-155q0 -25 -7 -32t-26 -7h-491q-19 0 -26 7t-7 30z" />
<glyph unicode="&#x2011;" horiz-adv-x="634" d="M45 502v155q0 25 7 32t26 7h491q19 0 26 -7t7 -30v-155q0 -25 -7 -32t-26 -7h-491q-19 0 -26 7t-7 30z" />
<glyph unicode="&#x2012;" horiz-adv-x="634" d="M45 502v155q0 25 7 32t26 7h491q19 0 26 -7t7 -30v-155q0 -25 -7 -32t-26 -7h-491q-19 0 -26 7t-7 30z" />
<glyph unicode="&#x2013;" horiz-adv-x="1300" d="M45 502v155q0 25 7 32t26 7h1153q19 0 26 -7t7 -30v-155q0 -25 -7 -32t-26 -7h-1153q-19 0 -26 7t-7 30z" />
<glyph unicode="&#x2014;" horiz-adv-x="1941" d="M45 502v155q0 25 7 32t26 7h1739q19 0 25.5 -7t6.5 -30v-155q0 -25 -6.5 -32t-25.5 -7h-1739q-19 0 -26 7t-7 30z" />
<glyph unicode="&#x2018;" horiz-adv-x="434" d="M41 1120v113q0 74 47.5 137.5t126.5 97.5q45 19 88 19h57q22 0 29 -12.5t-6 -34.5q-29 -45 -36 -82t-7 -105v-120q0 -49 -35.5 -74t-116.5 -25q-80 0 -113.5 21t-33.5 65z" />
<glyph unicode="&#x2019;" horiz-adv-x="434" d="M45 1046.5q-7 12.5 6 34.5q29 45 36 82t7 105v121q0 49 35.5 73.5t116.5 24.5q80 0 113.5 -21t33.5 -65v-113q0 -74 -47.5 -137.5t-126.5 -97.5q-45 -19 -88 -19h-57q-22 0 -29 12.5z" />
<glyph unicode="&#x201a;" horiz-adv-x="434" d="M45 -149.5q-7 12.5 6 34.5q29 45 36 82t7 105v121q0 49 35.5 73.5t116.5 24.5q80 0 113.5 -21t33.5 -65v-113q0 -74 -47.5 -137.5t-126.5 -97.5q-45 -19 -88 -19h-57q-22 0 -29 12.5z" />
<glyph unicode="&#x201c;" horiz-adv-x="849" d="M41 1120v113q0 74 47.5 137.5t126.5 97.5q45 19 88 19h57q22 0 29 -12.5t-6 -34.5q-29 -45 -36 -82t-7 -105v-120q0 -49 -35.5 -74t-116.5 -25q-80 0 -113.5 21t-33.5 65zM457 1120v113q0 74 47.5 137.5t126.5 97.5q45 19 88 19h57q22 0 29 -12.5t-6 -34.5 q-29 -45 -36 -82t-7 -105v-120q0 -49 -35.5 -74t-116.5 -25q-80 0 -113.5 21t-33.5 65z" />
<glyph unicode="&#x201d;" horiz-adv-x="849" d="M45 1048.5q-7 12.5 6 34.5q29 45 36 82t7 105v121q0 49 35.5 73.5t116.5 24.5q80 0 113.5 -21t33.5 -65v-113q0 -74 -47.5 -137.5t-126.5 -97.5q-45 -19 -88 -19h-57q-22 0 -29 12.5zM460.5 1048.5q-6.5 12.5 6.5 34.5q29 45 36 82t7 105v121q0 49 35.5 73.5t116.5 24.5 q80 0 113.5 -21t33.5 -65v-113q0 -74 -47.5 -137.5t-126.5 -97.5q-45 -19 -88 -19h-58q-22 0 -28.5 12.5z" />
<glyph unicode="&#x201e;" horiz-adv-x="868" d="M45 -149.5q-7 12.5 6 34.5q29 45 36 82t7 105v121q0 49 35.5 73.5t116.5 24.5q80 0 113.5 -21t33.5 -65v-113q0 -74 -47.5 -137.5t-126.5 -97.5q-45 -19 -88 -19h-57q-22 0 -29 12.5zM479 -149.5q-7 12.5 6 34.5q29 45 36 82t7 105v121q0 49 35.5 73.5t116.5 24.5 q80 0 113.5 -21t33.5 -65v-113q0 -74 -47.5 -137.5t-126.5 -97.5q-45 -19 -88 -19h-57q-22 0 -29 12.5z" />
<glyph unicode="&#x2022;" horiz-adv-x="765" d="M70 414v225q0 58 26.5 97.5t74.5 58.5t98.5 26.5t115.5 7.5t115.5 -7.5t98.5 -26.5t74.5 -58.5t26.5 -97.5v-225q0 -119 -80.5 -165t-234.5 -46t-234.5 46t-80.5 165z" />
<glyph unicode="&#x2026;" horiz-adv-x="1370" d="M70 88v111q0 94 155 94q156 0 156 -94v-111q0 -59 -40 -81.5t-116 -22.5t-115.5 22.5t-39.5 81.5zM526 88v111q0 94 156 94t156 -94v-111q0 -59 -40 -81.5t-116 -22.5t-116 22.5t-40 81.5zM983 88v111q0 94 156 94q155 0 155 -94v-111q0 -59 -39.5 -81.5t-115.5 -22.5 t-116 22.5t-40 81.5z" />
<glyph unicode="&#x202f;" horiz-adv-x="393" />
<glyph unicode="&#x2039;" horiz-adv-x="671" d="M82.5 544q-0.5 11 13.5 36l174 288q11 19 22.5 25t33.5 6h237q19 0 24.5 -13.5t-3.5 -23.5l-176 -319l178 -314q8 -12 1 -24t-22 -12h-243q-34 0 -56 36l-168 279q-15 25 -15.5 36z" />
<glyph unicode="&#x203a;" horiz-adv-x="671" d="M84.5 205q-6.5 12 1.5 24l178 314l-176 319q-9 10 -3.5 23.5t24.5 13.5h237q21 0 32 -6t23 -25l174 -288q14 -25 13.5 -36t-15.5 -36l-167 -279q-22 -36 -56 -36h-244q-15 0 -21.5 12z" />
<glyph unicode="&#x205f;" horiz-adv-x="492" />
<glyph unicode="&#x20ac;" horiz-adv-x="1462" d="M14 465v137q0 22 8 27.5t33 5.5h117v96h-117q-41 0 -41 33v137q0 20 8.5 26.5t32.5 6.5h117v12q0 286 162 413.5t481 127.5q124 0 282.5 -9t198.5 -22q21 -8 21 -29l-17 -374q0 -29 -32 -29h-156q-25 0 -31 29l-37 186q-86 12 -227 12q-67 0 -120 -17.5t-85.5 -46 t-53.5 -68.5t-29.5 -81t-8.5 -88v-16h395q20 0 27.5 -7t7.5 -26v-137q0 -20 -8 -26.5t-33 -6.5h-389l2 -96h271q20 0 27 -6.5t7 -26.5v-137q0 -19 -8.5 -26t-32.5 -7h-254q24 -104 111.5 -151.5t265.5 -47.5q169 0 387 37q26 5 40 -1.5t14 -32.5v-177q0 -21 -7 -30t-32 -15 q-57 -13 -185 -23.5t-264 -10.5q-153 0 -267.5 20t-190 56t-124.5 93.5t-72 125t-32 157.5h-121q-41 0 -41 33z" />
<glyph unicode="&#x2122;" horiz-adv-x="1236" d="M72 1460q0 10 8 10h137q12 0 12 -10v-39q0 -12 -12 -12l-65 -6q-5 0 -9 -8l-10 -58q-3 -10 -10 -10h-35q-4 0 -5.5 0.5t-3 2.5t-1.5 7zM215 993v35q0 5 6 8l17 2q16 2 16 17v409q0 6 6 6h82q2 0 4 -2t2 -4v-409q0 -14 14 -17l19 -2q6 -3 6 -8v-35q0 -6 -8 -6h-156 q-8 0 -8 6zM371 1421v39q0 10 14 10h137q6 0 6 -10l-4 -123q-1 -7 -3 -8.5t-7 -1.5h-35q-7 0 -10 10l-12 58q0 8 -8 8l-64 6q-14 0 -14 12zM592 993v35q0 5 6 8l12 2q17 2 17 17v309q0 5 2.5 7t6 0.5t5.5 -5.5l47 -96q6 -15 6 -35v-180q0 -15 17 -17l12 -2q6 -3 6 -8v-35 q0 -1 -2.5 -3.5t-3.5 -2.5h-123q-8 0 -8 6zM592 1430v34q0 6 8 6h107q3 0 6 -1t4.5 -2t3.5 -4t2.5 -4t2.5 -6.5t3 -6.5l133 -277l107 265q3 10 14 10q8 0 8 -10v-115q0 -15 -6 -27l-117 -295q-2 -10 -14 -10q-6 0 -8 2l-4 8l-197 412q-3 8 -14 8l-33 4q-6 3 -6 9zM981 993 v35q0 5 6 8l12 2q17 2 17 17v409q0 2 2 4t4 2h115q8 0 8 -6v-34q0 -6 -6 -9l-15 -2q-14 0 -14 -16v-348q0 -14 14 -17l15 -2q6 -3 6 -8v-35q0 -6 -8 -6h-150q-1 0 -3.5 2.5t-2.5 3.5z" />
<glyph unicode="&#x25fc;" horiz-adv-x="1024" d="M0 0v1024h1024v-1024h-1024z" />
<glyph unicode="&#xfb01;" horiz-adv-x="1382" d="M61 838v159q0 27 21 27h125v125q0 86 11.5 147.5t43 116t85.5 87.5t141.5 52t209.5 19q111 0 226.5 -8t171.5 -19q16 -5 19 -11t3 -20l-16 -307q0 -28 -31 -28h-145q-22 0 -29 28l-37 150q-52 8 -141 8q-195 0 -195 -213v-127h592q50 0 70 -23t20 -67v-664 q0 -41 11.5 -57t35.5 -16q27 0 52 4q10 0 14.5 -1t8 -7.5t3.5 -20.5v-143q0 -23 -22 -31q-56 -18 -189 -18q-72 0 -119.5 19t-71 55.5t-32 76.5t-8.5 96v498q0 48 -10.5 60t-51.5 22l-18 4h-285v-537q0 -36 14 -50t48 -19l57 -6q21 -2 21 -27v-147q0 -10 -8 -17.5t-17 -7.5 h-526q-25 0 -25 25v145q0 26 23 29l34 6q62 10 62 82v524h-119q-27 0 -27 27z" />
<glyph unicode="&#xfb02;" horiz-adv-x="1384" d="M61 844v153q0 27 21 27h125v168q0 80 11.5 136t42.5 105.5t86 78t143 45t212 16.5q125 0 214.5 -16.5t146 -45.5t89 -79t44.5 -108t12 -140v-914q0 -41 11.5 -57t35.5 -16q27 0 52 4q10 0 14.5 -1t8 -7.5t3.5 -20.5v-143q0 -23 -22 -31q-56 -18 -189 -18q-72 0 -119.5 19 t-71 55.5t-32 76.5t-8.5 96v953q0 166 -189 166q-178 0 -178 -172v-150h201q20 0 20 -27v-153q0 -27 -26 -27h-195v-551q0 -41 10.5 -53t51.5 -16l37 -7q20 -3 20 -26v-139q0 -25 -25 -25h-505q-25 0 -25 25v137q0 25 23 28l34 7q35 5 48.5 21t13.5 61v538h-119 q-27 0 -27 27z" />
<glyph unicode="&#xfb03;" horiz-adv-x="2095" d="M61 838v159q0 27 21 27h125v23q0 86 12.5 147.5t47 116t93.5 87.5t153.5 51.5t225.5 18.5q121 0 258 -24q105 127 414 127q258 0 397 -27q16 -6 19.5 -11.5t3.5 -19.5l-16 -307q0 -28 -31 -28h-146q-11 0 -17.5 6t-10.5 22l-37 150q-52 8 -141 8q-195 0 -195 -213v-127 h592q50 0 70 -23t20 -67v-664q0 -41 11.5 -57t35.5 -16q26 0 51 4q10 0 14.5 -1t8.5 -7.5t4 -20.5v-143q0 -22 -23 -31q-56 -18 -188 -18q-72 0 -119.5 19t-71 55.5t-32 76.5t-8.5 96v498q0 78 -56 86h-309v-537q0 -37 13.5 -50.5t47.5 -18.5l58 -6q20 -2 20 -27v-147 q0 -10 -7.5 -17.5t-16.5 -7.5h-527q-24 0 -24 25v145q0 26 22 29l35 6q62 10 62 82v524h-396v-537q0 -36 14 -50t48 -19l57 -6q21 -2 21 -27v-147q0 -10 -8 -17.5t-17 -7.5h-526q-25 0 -25 25v145q0 26 23 29l34 6q62 10 62 82v524h-119q-27 0 -27 27zM524 1024h396v125 q0 63 4 94q-100 19 -185 19q-215 0 -215 -213v-25z" />
<glyph unicode="&#xfb04;" horiz-adv-x="2095" d="M61 838v159q0 27 21 27h125v23q0 86 12.5 147.5t47 116t93.5 87.5t153.5 51.5t225.5 18.5q122 0 256 -24q54 64 156.5 95.5t271.5 31.5q121 0 254 -10q242 -20 242 -115v-1176q0 -41 11.5 -57t35.5 -16q26 0 51 4q10 0 14.5 -1t8.5 -7.5t4 -20.5v-143q0 -22 -23 -31 q-56 -18 -188 -18q-72 0 -119.5 19t-71 55.5t-32 76.5t-8.5 96v1010q0 48 -11.5 61.5t-50.5 18.5q-58 6 -72 6q-70 0 -118 -13.5t-71.5 -39t-32.5 -54t-9 -65.5v-127h223q21 0 21 -27v-159q0 -27 -27 -27h-217v-537q0 -37 13.5 -50.5t47.5 -18.5l58 -6q20 -2 20 -27v-147 q0 -10 -7.5 -17.5t-16.5 -7.5h-527q-24 0 -24 25v145q0 26 22 29l35 6q62 10 62 82v524h-396v-537q0 -36 14 -50t48 -19l57 -6q21 -2 21 -27v-147q0 -10 -8 -17.5t-17 -7.5h-526q-25 0 -25 25v145q0 26 23 29l34 6q62 10 62 82v524h-119q-27 0 -27 27zM524 1024h396v125 q0 63 4 94q-100 19 -185 19q-215 0 -215 -213v-25z" />
</font>
</defs>
</svg>
